<svg width="130" height="75" viewBox="0 0 130 75" fill="none" xmlns="http://www.w3.org/2000/svg">
<rect opacity="0.05" width="105.813" height="61.976" fill="#71BEF1"/>
<path d="M83.231 43.0811C83.228 42.3937 83.7876 41.8341 84.4781 41.8341C85.1625 41.8341 85.7221 42.3937 85.7252 43.0811C85.7221 43.4248 85.5852 43.7351 85.3571 43.9632C85.132 44.1883 84.8218 44.3282 84.4781 44.3282C83.7876 44.3282 83.228 43.7685 83.231 43.0811Z" fill="#BFCAE0"/>
<path d="M68.4688 43.09C68.4688 42.3995 69.0255 41.8429 69.7159 41.8429C70.4064 41.8429 70.963 42.4026 70.963 43.09C70.963 43.4307 70.8261 43.747 70.601 43.9721C70.376 44.2002 70.0596 44.3371 69.719 44.3371C69.0285 44.3371 68.4719 43.7774 68.4688 43.09Z" fill="#BFCAE0"/>
<path d="M53.7111 43.0796C53.7111 42.39 54.2708 41.8341 54.9582 41.8341C55.6426 41.8341 56.2022 42.393 56.2053 43.0796C56.2022 43.4229 56.0653 43.7328 55.8372 43.9606C55.6121 44.1885 55.3019 44.3252 54.9551 44.3282C54.2708 44.3221 53.7111 43.7632 53.7111 43.0796Z" fill="#BFCAE0"/>
<path d="M129.995 43.077C129.998 43.4211 129.858 43.7318 129.632 43.9602C129.407 44.1855 129.096 44.3256 128.749 44.3226C128.061 44.3256 127.501 43.7653 127.501 43.074C127.501 42.3888 128.061 41.8284 128.746 41.8284C129.437 41.8284 129.998 42.3888 129.995 43.077Z" fill="#BFCAE0"/>
<path d="M115.238 43.087C115.238 43.4307 115.099 43.741 114.87 43.9691C114.645 44.1942 114.335 44.3341 113.991 44.3341C113.301 44.3341 112.744 43.7775 112.744 43.087C112.741 42.3996 113.301 41.84 113.991 41.84C114.685 41.84 115.238 42.3966 115.238 43.087Z" fill="#BFCAE0"/>
<path d="M100.478 43.0811C100.481 43.4248 100.338 43.7381 100.115 43.9632C99.8869 44.1913 99.5793 44.3282 99.2322 44.3282C98.547 44.3282 97.9866 43.7685 97.9836 43.0811C97.9866 42.3937 98.5439 41.8341 99.2322 41.8341C99.9204 41.8341 100.481 42.3937 100.478 43.0811Z" fill="#BFCAE0"/>
<path d="M41.4431 43.0811C41.4431 43.4248 41.3032 43.7351 41.075 43.9632C40.85 44.1883 40.5397 44.3282 40.196 44.3282C39.5056 44.3282 38.9489 43.7716 38.9489 43.0811C38.9489 42.3907 39.5056 41.8341 40.196 41.8341C40.8865 41.8341 41.4431 42.3907 41.4431 43.0811Z" fill="#BFCAE0"/>
<path d="M26.6816 43.0752C26.6847 43.4189 26.5446 43.7322 26.3192 43.9573C26.0939 44.1824 25.7832 44.3223 25.4361 44.3223C24.7509 44.3223 24.1905 43.7626 24.1875 43.0752C24.1905 42.3878 24.7478 41.8282 25.4361 41.8282C26.1274 41.8312 26.6847 42.3878 26.6816 43.0752Z" fill="#BFCAE0"/>
<path d="M100.481 57.9463C100.478 58.29 100.341 58.6002 100.113 58.8284C99.8876 59.0534 99.5773 59.1934 99.2336 59.1934C98.5432 59.1934 97.9865 58.6367 97.9865 57.9463C97.9835 57.2589 98.5432 56.6992 99.2336 56.6992C99.921 56.7053 100.478 57.2589 100.481 57.9463Z" fill="#BFCAE0"/>
<path d="M85.7214 57.9463C85.7245 58.29 85.5813 58.6032 85.359 58.8283C85.1337 59.0534 84.82 59.1963 84.4759 59.1933C83.7877 59.1963 83.2273 58.6367 83.2273 57.9463C83.2304 57.2589 83.7877 56.7022 84.4759 56.6992C85.1641 56.7022 85.7214 57.2589 85.7214 57.9463Z" fill="#BFCAE0"/>
<path d="M129.998 57.9464C129.998 58.2901 129.858 58.6034 129.633 58.8284C129.408 59.0535 129.094 59.1904 128.751 59.1904C128.06 59.1904 127.504 58.6338 127.504 57.9433C127.5 57.2559 128.06 56.6962 128.751 56.6962C129.438 56.7054 129.995 57.259 129.998 57.9464Z" fill="#BFCAE0"/>
<path d="M68.4688 57.9566C68.4688 57.267 69.0285 56.711 69.7159 56.711C70.4003 56.711 70.96 57.27 70.963 57.9566C70.96 58.2999 70.8231 58.6097 70.595 58.8376C70.3699 59.0624 70.0596 59.2021 69.7129 59.2052C69.0255 59.1991 68.4688 58.6401 68.4688 57.9566Z" fill="#BFCAE0"/>
<path d="M38.9519 57.9463C38.9519 57.2558 39.5115 56.6992 40.199 56.6992C40.8864 56.6962 41.446 57.2558 41.446 57.9463C41.446 58.29 41.3061 58.6002 41.081 58.8253C40.856 59.0504 40.5457 59.1903 40.199 59.1934C39.5085 59.1903 38.9519 58.6307 38.9519 57.9463Z" fill="#BFCAE0"/>
<path d="M113.991 56.7022C114.68 56.6991 115.241 57.2595 115.238 57.9477C115.241 58.2918 115.098 58.6055 114.876 58.8309C114.65 59.0562 114.339 59.1963 113.991 59.1963C113.302 59.1993 112.741 58.639 112.744 57.9508C112.741 57.2564 113.302 56.6991 113.991 56.7022Z" fill="#BFCAE0"/>
<path d="M25.4405 56.6933C26.1279 56.6963 26.6845 57.253 26.6876 57.9404C26.6845 58.2841 26.5476 58.5943 26.3195 58.8225C26.0944 59.0475 25.7842 59.1875 25.4405 59.1875C24.75 59.1875 24.1934 58.6308 24.1934 57.9404C24.1904 57.2499 24.75 56.6933 25.4405 56.6933Z" fill="#BFCAE0"/>
<path d="M56.2016 57.9493C56.2016 58.29 56.0616 58.6063 55.8366 58.8314C55.6115 59.0565 55.2982 59.1933 54.9545 59.1933C54.2671 59.1964 53.7074 58.6367 53.7074 57.9463C53.7074 57.2558 54.264 56.6992 54.9545 56.6992C55.648 56.7053 56.2046 57.2619 56.2016 57.9493Z" fill="#BFCAE0"/>
<path d="M112.748 72.8129C112.745 72.1247 113.305 71.5643 113.995 71.5643C114.682 71.5674 115.239 72.1247 115.242 72.8129C115.239 73.1571 115.105 73.4707 114.877 73.6961C114.652 73.9215 114.339 74.0585 113.995 74.0585C113.305 74.0585 112.748 73.5012 112.748 72.8129Z" fill="#BFCAE0"/>
<path d="M97.9895 72.8114C97.9895 72.121 98.5461 71.5644 99.2366 71.5644C99.924 71.5613 100.484 72.121 100.484 72.8114C100.484 73.1521 100.344 73.4654 100.116 73.6935C99.8875 73.9186 99.5772 74.0585 99.2335 74.0585C98.5461 74.0585 97.9865 73.4988 97.9895 72.8114Z" fill="#BFCAE0"/>
<path d="M41.4431 72.8144C41.4431 73.1612 41.3032 73.4714 41.0781 73.6965C40.853 73.9216 40.5428 74.0615 40.196 74.0585C39.5086 74.0615 38.9489 73.5018 38.9489 72.8114C38.9489 72.127 39.5086 71.5674 40.196 71.5643C40.8834 71.5704 41.4431 72.1301 41.4431 72.8144Z" fill="#BFCAE0"/>
<path d="M83.2273 72.8114C83.2273 72.121 83.787 71.5643 84.4744 71.5643C85.1649 71.5643 85.7215 72.121 85.7215 72.8114C85.7215 73.1551 85.5846 73.4654 85.3595 73.6935C85.1344 73.9216 84.8211 74.0555 84.4774 74.0585C83.787 74.0555 83.2304 73.4988 83.2273 72.8114Z" fill="#BFCAE0"/>
<path d="M70.96 72.8262C70.96 73.173 70.8232 73.4832 70.595 73.7083C70.37 73.9334 70.0597 74.0733 69.713 74.0703C69.0256 74.0733 68.4659 73.5137 68.4659 72.8232C68.4689 72.1358 69.0256 71.5792 69.713 71.5762C70.4004 71.5822 70.96 72.1388 70.96 72.8262Z" fill="#BFCAE0"/>
<path d="M53.7111 72.8114C53.7111 72.121 54.2708 71.5644 54.9582 71.5644C55.6456 71.5613 56.2053 72.121 56.2053 72.8114C56.2053 73.1521 56.0653 73.4654 55.8403 73.6905C55.6152 73.9155 55.3049 74.0555 54.9582 74.0585C54.2708 74.0555 53.7111 73.4958 53.7111 72.8114Z" fill="#BFCAE0"/>
<path d="M127.503 72.8085C127.503 72.118 128.064 71.5614 128.752 71.5614C129.437 71.5614 129.998 72.1211 129.998 72.8085C129.998 73.1522 129.858 73.4624 129.632 73.6875C129.407 73.9156 129.096 74.0525 128.749 74.0555C128.061 74.0525 127.503 73.4928 127.503 72.8085Z" fill="#BFCAE0"/>
<path d="M24.1934 72.8055C24.1934 72.1151 24.7531 71.5585 25.4405 71.5585C26.1279 71.5554 26.6876 72.1151 26.6876 72.8055C26.6876 73.1492 26.5477 73.4595 26.3226 73.6846C26.0975 73.9096 25.7842 74.0526 25.4405 74.0526C24.75 74.0526 24.1904 73.4929 24.1934 72.8055Z" fill="#BFCAE0"/>
<path d="M112.744 28.2189C112.747 27.5315 113.307 26.9719 113.991 26.9719C114.682 26.9719 115.238 27.5315 115.238 28.2189C115.241 28.5626 115.102 28.8729 114.876 29.101C114.648 29.3261 114.341 29.466 113.994 29.466C113.307 29.463 112.747 28.9063 112.744 28.2189Z" fill="#BFCAE0"/>
<path d="M97.9895 28.213C97.9895 27.5226 98.5461 26.966 99.2366 26.966C99.924 26.9629 100.484 27.5226 100.484 28.213C100.484 28.5567 100.344 28.867 100.116 29.0951C99.8905 29.3202 99.5803 29.4601 99.2366 29.4601C98.5461 29.4571 97.9865 28.9004 97.9895 28.213Z" fill="#BFCAE0"/>
<path d="M127.506 28.213C127.506 27.5226 128.063 26.966 128.754 26.966C129.444 26.966 130.001 27.5226 130.001 28.213C130.001 28.5567 129.861 28.867 129.636 29.0921C129.411 29.3172 129.097 29.4601 128.754 29.4601C128.063 29.4571 127.506 28.9035 127.506 28.213Z" fill="#BFCAE0"/>
<path d="M41.4431 28.213C41.4431 28.5598 41.3032 28.87 41.0781 29.0981C40.853 29.3232 40.5428 29.4631 40.196 29.4601C39.5086 29.4631 38.9489 28.9035 38.9489 28.213C38.9489 27.5287 39.5086 26.969 40.196 26.966C40.8834 26.969 41.4431 27.5287 41.4431 28.213Z" fill="#BFCAE0"/>
<path d="M83.2273 28.213C83.2273 27.5226 83.787 26.966 84.4744 26.966C85.1649 26.966 85.7215 27.5226 85.7215 28.213C85.7215 28.5567 85.5816 28.87 85.3595 29.0951C85.1344 29.3202 84.8211 29.4571 84.4774 29.4601C83.787 29.4571 83.2304 28.9004 83.2273 28.213Z" fill="#BFCAE0"/>
<path d="M53.7111 28.2101C53.7111 27.5196 54.2677 26.963 54.9582 26.963C55.6486 26.963 56.2053 27.5196 56.2053 28.2101C56.2053 28.5538 56.0653 28.864 55.8403 29.0891C55.6121 29.3142 55.3019 29.4572 54.9582 29.4572C54.2677 29.4541 53.7111 28.9005 53.7111 28.2101Z" fill="#BFCAE0"/>
<path d="M24.1934 28.2071C24.1934 27.5167 24.75 26.9601 25.4405 26.9601C26.1279 26.957 26.6876 27.5167 26.6876 28.2071C26.6876 28.5508 26.5476 28.8611 26.3195 29.0892C26.0944 29.3143 25.7842 29.4542 25.4405 29.4542C24.75 29.4512 24.1904 28.8945 24.1934 28.2071Z" fill="#BFCAE0"/>
<path d="M69.7159 26.9748C70.4003 26.9748 70.96 27.5345 70.963 28.2219C70.96 28.5656 70.8231 28.8758 70.595 29.104C70.3699 29.3291 70.0596 29.469 69.7159 29.469C69.0255 29.469 68.4688 28.9093 68.4688 28.2219C68.4688 27.5345 69.0255 26.9748 69.7159 26.9748Z" fill="#BFCAE0"/>
<path d="M38.9519 13.3479C38.9519 12.6574 39.5085 12.1008 40.199 12.1008C40.8864 12.0978 41.446 12.6574 41.446 13.3479C41.446 13.6916 41.3061 14.0018 41.081 14.2269C40.856 14.452 40.5457 14.5919 40.199 14.595C39.5085 14.5889 38.9519 14.0323 38.9519 13.3479Z" fill="#BFCAE0"/>
<path d="M24.1934 13.3435C24.1904 12.6553 24.75 12.0949 25.4405 12.0949C26.1279 12.0979 26.6845 12.6553 26.6876 13.3435C26.6845 13.6876 26.5476 14.0013 26.3226 14.2267C26.0975 14.452 25.7842 14.5891 25.4405 14.5891C24.75 14.5891 24.1934 14.0318 24.1934 13.3435Z" fill="#BFCAE0"/>
<path d="M85.7214 13.3509C85.7245 13.6946 85.5815 14.0079 85.3564 14.233C85.1314 14.458 84.8211 14.598 84.4744 14.5949C83.787 14.598 83.2273 14.0383 83.2273 13.3479C83.2304 12.6605 83.787 12.1038 84.4744 12.1008C85.1648 12.1038 85.7214 12.6635 85.7214 13.3509Z" fill="#BFCAE0"/>
<path d="M112.748 13.3538C112.748 12.6633 113.305 12.1067 113.995 12.1067C114.682 12.1037 115.242 12.6633 115.242 13.3538C115.242 13.6945 115.102 14.0078 114.877 14.2328C114.649 14.4579 114.339 14.6009 113.995 14.6009C113.305 14.5978 112.745 14.0412 112.748 13.3538Z" fill="#BFCAE0"/>
<path d="M68.4688 13.3567C68.4688 12.6663 69.0285 12.1097 69.7159 12.1097C70.4064 12.1097 70.963 12.6663 70.963 13.3567C70.963 13.6974 70.8231 14.0107 70.598 14.2358C70.3699 14.4609 70.0627 14.6008 69.7159 14.6038C69.0255 14.5977 68.4719 14.0411 68.4688 13.3567Z" fill="#BFCAE0"/>
<path d="M56.2016 13.3479C56.2016 13.6947 56.0616 14.0049 55.8366 14.23C55.6115 14.4551 55.3012 14.595 54.9545 14.592C54.2671 14.595 53.7074 14.0354 53.7074 13.3449C53.7105 12.6575 54.2671 12.1009 54.9545 12.0979C55.6449 12.1039 56.2016 12.6636 56.2016 13.3479Z" fill="#BFCAE0"/>
<path d="M100.481 13.3509C100.478 13.6946 100.344 14.0079 100.116 14.233C99.8876 14.4611 99.5773 14.595 99.2336 14.595C98.5432 14.595 97.9865 14.0383 97.9865 13.3479C97.9835 12.6605 98.5432 12.1008 99.2336 12.1008C99.921 12.1069 100.478 12.6635 100.481 13.3509Z" fill="#BFCAE0"/>
<path d="M129.998 13.3509C129.998 13.6976 129.858 14.0079 129.633 14.233C129.408 14.458 129.097 14.598 128.751 14.5949C128.063 14.598 127.504 14.0383 127.504 13.3479C127.5 12.6605 128.06 12.1008 128.751 12.1008C129.438 12.1069 129.998 12.6665 129.998 13.3509Z" fill="#BFCAE0"/>
</svg>
