<svg width="56" height="56" viewBox="0 0 56 56" fill="none" xmlns="http://www.w3.org/2000/svg">
<path d="M48.364 28.0004C48.364 39.2469 39.2469 48.364 28.0004 48.364C16.7538 48.364 7.63672 39.2469 7.63672 28.0004C7.63672 16.7538 16.7538 7.63672 28.0004 7.63672C39.2469 7.63672 48.364 16.7538 48.364 28.0004Z" fill="#EBEFF5"/>
<path d="M23.2275 20.0456L20.0457 21.6365L19.7275 18.4547L20.3639 15.5911L23.2275 12.4093L27.6821 10.8184L30.8639 11.1365L33.7275 12.7275L35.6366 15.9093L36.273 18.7729L35.9548 20.0456L33.7275 18.7729L31.1821 17.182L29.5912 14.9547H28.6366L25.1366 18.7729L23.2275 20.0456Z" fill="#EBEFF5"/>
<path d="M19.7275 32.7722L20.0457 23.5449L22.5912 27.0449L24.1821 28.6358L23.8639 30.5449L23.5457 32.7722L22.5912 33.7267L21.6366 32.7722H19.7275Z" fill="#EBEFF5"/>
<path d="M34.682 25.7722L35.9547 23.5449L36.2729 29.2722L35.9547 33.0904H35.0002H33.7275L33.0911 33.7267L32.4547 31.4995L31.8184 29.2722L32.4547 28.3176L34.682 25.7722Z" fill="#EBEFF5"/>
<path d="M14 45.819V37.0277C14 36.8004 14.0242 36.5715 14.1116 36.3617C14.7678 34.7865 16.9352 33.5941 19.0909 32.8054C19.6283 32.6087 20.165 32.4372 20.6773 32.291C21.8262 31.9633 22.9973 32.603 23.4613 33.7039L27.9999 44.4714L32.5389 33.7038C33.003 32.6029 34.1741 31.9632 35.3229 32.291C35.8353 32.4372 36.3719 32.6087 36.9093 32.8054C39.0649 33.5941 41.2322 34.7865 41.8884 36.3617C41.9758 36.5715 42 36.8004 42 37.0277V45.819C42 47.2248 40.8604 48.3644 39.4545 48.3644H27.9999H16.5454C15.1396 48.3644 14 47.2248 14 45.819Z" fill="white"/>
<path fill-rule="evenodd" clip-rule="evenodd" d="M27.9999 45.7441C28.5118 45.7441 28.9739 45.4374 29.1727 44.9657L33.7117 34.1982C33.9543 33.6228 34.5116 33.383 34.9738 33.5149C35.4595 33.6534 35.9665 33.8156 36.472 34.0006C37.4945 34.3748 38.4754 34.8294 39.2568 35.3487C40.0566 35.8802 40.5236 36.3973 40.7125 36.8486C40.7133 36.8515 40.7159 36.8609 40.7187 36.879C40.7234 36.9101 40.7273 36.9573 40.7273 37.0277V45.819C40.7273 46.5219 40.1575 47.0917 39.4545 47.0917H16.5454C15.8425 47.0917 15.2727 46.5219 15.2727 45.819V37.0277C15.2727 36.9573 15.2766 36.9101 15.2813 36.879C15.2841 36.8609 15.2866 36.8515 15.2875 36.8486C15.4764 36.3974 15.9434 35.8802 16.7433 35.3487C17.5247 34.8295 18.5056 34.3748 19.5283 34.0006C20.0338 33.8156 20.5408 33.6535 21.0265 33.5149C21.4887 33.3831 22.046 33.6229 22.2885 34.1982L26.8271 44.9657C27.026 45.4374 27.488 45.7441 27.9999 45.7441ZM32.5389 33.7038C33.003 32.6029 34.1741 31.9632 35.3229 32.291C35.8353 32.4372 36.3719 32.6087 36.9093 32.8054C39.0649 33.5941 41.2322 34.7865 41.8884 36.3617C41.9758 36.5715 42 36.8004 42 37.0277V45.819C42 47.2248 40.8604 48.3644 39.4545 48.3644H16.5454C15.1396 48.3644 14 47.2248 14 45.819V37.0277C14 36.8004 14.0242 36.5715 14.1116 36.3617C14.7678 34.7865 16.9352 33.5941 19.0909 32.8054C19.6283 32.6087 20.165 32.4372 20.6773 32.291C21.8262 31.9633 22.9973 32.603 23.4613 33.7039L27.9999 44.4714L32.5389 33.7038Z" fill="#7F90AF"/>
<path d="M24.1823 29.9094V28.6367L21.6368 25.7731L20.3641 23.2276L20.0459 21.6367L21.6368 21.0004L24.8186 19.0913L27.3641 16.5458L28.955 14.6367L30.2277 16.2276L31.8186 17.8185L34.6823 19.4094L36.2732 20.0458L35.955 22.2731L35.3186 24.5004L34.0459 26.7276L31.8186 29.2731V30.864L32.455 32.4549L33.0914 34.0458L28.0004 44.864L23.8641 36.2731L22.9095 33.7276L23.2277 33.0913L23.8641 31.5004L24.1823 29.9094Z" fill="white"/>
<path d="M36.6671 36.134L36.9092 33.728C36.591 33.4098 35.3182 32.7734 34.3637 32.7734C33.4092 32.7734 32.7728 34.6825 32.4546 35.3189L28.0001 45.1825L23.5456 35.3189C23.2274 34.6825 22.591 32.7734 21.6365 32.7734C20.6819 32.7734 19.4092 33.4098 19.091 33.728L19.3331 36.134C19.4521 37.3162 20.373 38.2588 21.552 38.4052L23.991 38.7082L23.6987 41.2498C23.6029 42.0835 23.9231 42.91 24.5563 43.4607L28.0001 46.4553L31.4439 43.4607C32.0771 42.91 32.3973 42.0835 32.3015 41.2498L32.0092 38.7082L34.4482 38.4052C35.6272 38.2588 36.5481 37.3162 36.6671 36.134Z" fill="#EBEFF5"/>
<path fill-rule="evenodd" clip-rule="evenodd" d="M22.9708 35.5912L24.0947 38.0799C24.0865 38.0786 24.0782 38.0774 24.0698 38.0764L21.6308 37.7734C20.7465 37.6635 20.0558 36.9566 19.9666 36.07L19.7607 34.0231C19.9058 33.9351 20.1137 33.8253 20.3702 33.7184C20.8124 33.5342 21.2798 33.4094 21.6368 33.4094C21.6506 33.4094 21.7202 33.4148 21.8548 33.5427C21.9889 33.6701 22.1318 33.868 22.2775 34.1229C22.4204 34.373 22.5493 34.648 22.6661 34.9108C22.6981 34.9828 22.7306 35.0572 22.7627 35.1308C22.8372 35.3015 22.9099 35.4681 22.9708 35.5912ZM24.5805 39.1554L27.17 44.8895L24.9742 42.9801C24.4996 42.5674 24.2593 41.9477 24.3313 41.3222L24.5805 39.1554ZM28.8309 44.8895L31.4204 39.1554L31.6696 41.3222C31.7415 41.9478 31.5013 42.5674 31.0266 42.9801L28.8309 44.8895ZM31.9061 38.0799C31.9144 38.0786 31.9227 38.0774 31.9311 38.0764L34.3701 37.7734C35.2544 37.6635 35.945 36.9566 36.0343 36.07L36.2402 34.0231C36.095 33.9351 35.8872 33.8253 35.6307 33.7185C35.1884 33.5342 34.7211 33.4094 34.3641 33.4094C34.3503 33.4094 34.2807 33.4148 34.1461 33.5427C34.012 33.6701 33.8691 33.868 33.7234 34.1229C33.5805 34.373 33.4516 34.648 33.3348 34.9108C33.3028 34.9828 33.2703 35.0572 33.2382 35.1308C33.1637 35.3015 33.091 35.4681 33.0301 35.5912L31.9061 38.0799ZM22.7314 32.62C22.4682 32.37 22.1003 32.1367 21.6368 32.1367C21.0393 32.1367 20.393 32.3302 19.8807 32.5436C19.3839 32.7506 18.8912 33.0278 18.6414 33.2776C18.5063 33.4127 18.4391 33.6013 18.4582 33.7913L18.7003 36.1974C18.849 37.6751 20.0001 38.8533 21.4739 39.0364L23.2871 39.2616L23.0669 41.1768C22.9471 42.2185 23.3473 43.252 24.1391 43.9405L27.5829 46.9351C27.8223 47.1433 28.1786 47.1433 28.418 46.9351L31.8618 43.9405C32.6535 43.252 33.0538 42.2185 32.934 41.1768L32.7138 39.2616L34.527 39.0364C36.0008 38.8533 37.1519 37.6751 37.3006 36.1974L37.5427 33.7913C37.5618 33.6013 37.4946 33.4127 37.3595 33.2776C37.1097 33.0278 36.6169 32.7506 36.1202 32.5436C35.6079 32.3302 34.9616 32.1367 34.3641 32.1367C33.9005 32.1367 33.5326 32.37 33.2695 32.62C33.0059 32.8704 32.7909 33.1895 32.6184 33.4914C32.4431 33.7981 32.2936 34.1198 32.1718 34.3939C32.1274 34.4937 32.0883 34.5834 32.0532 34.6638C31.9854 34.8193 31.9326 34.9403 31.8858 35.0339C31.882 35.0414 31.8785 35.049 31.875 35.0566L28.0004 43.6361L24.1259 35.0566C24.1224 35.049 24.1188 35.0414 24.1151 35.0339C24.0683 34.9403 24.0155 34.8193 23.9477 34.6639C23.9126 34.5834 23.8735 34.4937 23.8291 34.3939C23.7073 34.1198 23.5578 33.7981 23.3825 33.4914C23.21 33.1895 22.995 32.8704 22.7314 32.62Z" fill="#7F90AF"/>
<path fill-rule="evenodd" clip-rule="evenodd" d="M36.9098 42.6367C37.2613 42.6367 37.5462 42.9216 37.5462 43.2731L37.5462 47.7276C37.5462 48.0791 37.2613 48.364 36.9098 48.364C36.5583 48.364 36.2734 48.0791 36.2734 47.7276L36.2734 43.2731C36.2734 42.9216 36.5583 42.6367 36.9098 42.6367Z" fill="#7F90AF"/>
<path fill-rule="evenodd" clip-rule="evenodd" d="M19.0914 42.6367C19.4429 42.6367 19.7278 42.9216 19.7278 43.2731V47.7276C19.7278 48.0791 19.4429 48.364 19.0914 48.364C18.74 48.364 18.4551 48.0791 18.4551 47.7276V43.2731C18.4551 42.9216 18.74 42.6367 19.0914 42.6367Z" fill="#7F90AF"/>
<path fill-rule="evenodd" clip-rule="evenodd" d="M24.3976 32.0875C24.1483 32.9943 23.7931 33.7435 23.3589 34.1776L22.459 33.2777C22.6612 33.0754 22.9424 32.5796 23.1704 31.7502C23.3921 30.9436 23.5453 29.8873 23.5453 28.6367H24.8181C24.8181 29.987 24.6531 31.158 24.3976 32.0875Z" fill="#7F90AF"/>
<path fill-rule="evenodd" clip-rule="evenodd" d="M32.3815 33.8965C32.469 34.019 32.5882 34.1599 32.744 34.2612L33.4376 33.1941C33.4526 33.2038 33.4599 33.2104 33.46 33.2103C33.4601 33.2102 33.4452 33.196 33.4173 33.1568C33.3758 33.0988 33.3228 33.0102 33.2623 32.8869C33.1415 32.6408 33.0097 32.2953 32.8879 31.8672C32.6446 31.0123 32.4545 29.8755 32.4545 28.6367H31.1817C31.1817 29.9988 31.3898 31.2527 31.6638 32.2155C31.8006 32.6963 31.9572 33.1166 32.1197 33.4477C32.2009 33.6129 32.2882 33.7659 32.3815 33.8965Z" fill="#7F90AF"/>
<path fill-rule="evenodd" clip-rule="evenodd" d="M28.2583 30.5454C23.0623 30.4662 19.0908 25.2308 19.0908 19.0918H20.3635C20.3635 24.8286 24.0429 29.2328 28.3184 29.2733C30.4417 29.2534 32.244 28.1746 33.5402 26.3701C34.8553 24.5395 35.6363 21.9713 35.6363 19.0918H36.909C36.909 22.1871 36.0716 25.0279 34.5739 27.1127C33.0925 29.1748 30.9528 30.5054 28.3779 30.5454V30.5463C28.3579 30.5463 28.3378 30.5463 28.3178 30.5461C28.298 30.5463 28.2781 30.5463 28.2583 30.5463V30.5454Z" fill="#7F90AF"/>
<path fill-rule="evenodd" clip-rule="evenodd" d="M31.465 18.1962C30.0872 17.0323 29.0481 15.7066 28.4717 14.7552L29.5602 14.0957C30.0695 14.9363 31.0203 16.1545 32.2863 17.2239C33.5537 18.2945 35.0959 19.1817 36.7905 19.4334L36.6035 20.6923C34.5969 20.3943 32.8415 19.3589 31.465 18.1962Z" fill="#7F90AF"/>
<path fill-rule="evenodd" clip-rule="evenodd" d="M19.5703 21.0324C25.2209 19.5948 28.5999 14.3921 30.0318 10.7676L31.2155 11.2352C29.7265 15.0043 26.1249 20.6781 19.8841 22.2658L19.5703 21.0324Z" fill="#7F90AF"/>
<path fill-rule="evenodd" clip-rule="evenodd" d="M28.0004 8.90945C22.6812 8.90945 17.8186 13.2524 17.8186 18.5078H16.5459C16.5459 12.4582 22.0731 7.63672 28.0004 7.63672C33.9277 7.63672 39.455 12.4582 39.455 18.5078H38.1823C38.1823 13.2524 33.3197 8.90945 28.0004 8.90945Z" fill="#7F90AF"/>
<path d="M14 21.6365C14 23.7453 15.7095 25.4547 17.8182 25.4547V17.8184C15.7095 17.8184 14 19.5278 14 21.6365Z" fill="#C8D1E0"/>
<path fill-rule="evenodd" clip-rule="evenodd" d="M15.2727 21.6365C15.2727 22.5787 15.7846 23.4013 16.5455 23.8415V19.4316C15.7846 19.8717 15.2727 20.6944 15.2727 21.6365ZM16.5455 18.0356C15.0625 18.5598 14 19.9741 14 21.6365C14 23.299 15.0625 24.7133 16.5455 25.2375C16.9435 25.3782 17.3719 25.4547 17.8182 25.4547V17.8184C17.3719 17.8184 16.9435 17.8949 16.5455 18.0356Z" fill="#7F90AF"/>
<path d="M42 21.6365C42 23.7453 40.2905 25.4547 38.1818 25.4547V17.8184C40.2905 17.8184 42 19.5278 42 21.6365Z" fill="#C8D1E0"/>
<path fill-rule="evenodd" clip-rule="evenodd" d="M40.7273 21.6365C40.7273 22.5787 40.2154 23.4013 39.4545 23.8415V19.4316C40.2154 19.8717 40.7273 20.6944 40.7273 21.6365ZM39.4545 18.0356C40.9375 18.5598 42 19.9741 42 21.6365C42 23.299 40.9375 24.7133 39.4545 25.2375C39.0565 25.3782 38.6281 25.4547 38.1818 25.4547V17.8184C38.6281 17.8184 39.0565 17.8949 39.4545 18.0356Z" fill="#7F90AF"/>
<path d="M29.273 26.0911C29.273 26.794 28.7032 27.3638 28.0003 27.3638C27.2974 27.3638 26.7275 26.794 26.7275 26.0911C26.7275 25.3882 27.2974 24.8184 28.0003 24.8184C28.7032 24.8184 29.273 25.3882 29.273 26.0911Z" fill="#7F90AF"/>
<path fill-rule="evenodd" clip-rule="evenodd" d="M27.9999 11.4544C23.7866 11.4544 20.3635 14.895 20.3635 19.1486V33.0907H19.0908V19.1486C19.0908 14.2005 23.0754 10.1816 27.9999 10.1816C32.9244 10.1816 36.909 14.2005 36.909 19.1486V33.0907H35.6363V19.1486C35.6363 14.895 32.2132 11.4544 27.9999 11.4544Z" fill="#7F90AF"/>
<path fill-rule="evenodd" clip-rule="evenodd" d="M32.4547 27.364C35.6178 27.364 38.182 24.7998 38.182 21.6367H39.4547C39.4547 25.5027 36.3207 28.6367 32.4547 28.6367C30.5471 28.6367 28.8167 27.8728 27.5547 26.6357L28.4457 25.7268C29.4794 26.7402 30.8936 27.364 32.4547 27.364Z" fill="#7F90AF"/>
</svg>
