<svg width="89" height="88" viewBox="0 0 89 88" fill="none" xmlns="http://www.w3.org/2000/svg">
<rect width="88" height="88" transform="translate(0.5)" fill="white"/>
<path d="M76.5 44C76.5 61.6731 62.1731 76 44.5 76C26.8269 76 12.5 61.6731 12.5 44C12.5 26.3269 26.8269 12 44.5 12C62.1731 12 76.5 26.3269 76.5 44Z" fill="#EBEFF5"/>
<path d="M27 17.1368C27 14.5302 29.453 12.62 31.9801 13.2587L58.9801 20.0824C60.7559 20.5312 62 22.1288 62 23.9605V76.0001H31C28.7909 76.0001 27 74.2092 27 72.0001V17.1368Z" fill="white"/>
<path fill-rule="evenodd" clip-rule="evenodd" d="M58.4901 22.0214L31.4901 15.1977C30.2265 14.8784 29 15.8335 29 17.1368V72.0001C29 73.1047 29.8954 74.0001 31 74.0001H60V23.9605C60 23.0446 59.378 22.2458 58.4901 22.0214ZM31.9801 13.2587C29.453 12.62 27 14.5302 27 17.1368V72.0001C27 74.2092 28.7909 76.0001 31 76.0001H62V23.9605C62 22.1288 60.7559 20.5312 58.9801 20.0824L31.9801 13.2587Z" fill="#7F90AF"/>
<path fill-rule="evenodd" clip-rule="evenodd" d="M34 30C34 29.4477 34.4477 29 35 29H41C41.5523 29 42 29.4477 42 30C42 30.5523 41.5523 31 41 31H35C34.4477 31 34 30.5523 34 30Z" fill="#7F90AF"/>
<path fill-rule="evenodd" clip-rule="evenodd" d="M34 37C34 36.4477 34.4477 36 35 36H41C41.5523 36 42 36.4477 42 37C42 37.5523 41.5523 38 41 38H35C34.4477 38 34 37.5523 34 37Z" fill="#7F90AF"/>
<path fill-rule="evenodd" clip-rule="evenodd" d="M34 45C34 44.4477 34.4477 44 35 44H41C41.5523 44 42 44.4477 42 45C42 45.5523 41.5523 46 41 46H35C34.4477 46 34 45.5523 34 45Z" fill="#7F90AF"/>
<path fill-rule="evenodd" clip-rule="evenodd" d="M34 53C34 52.4477 34.4477 52 35 52H41C41.5523 52 42 52.4477 42 53C42 53.5523 41.5523 54 41 54H35C34.4477 54 34 53.5523 34 53Z" fill="#7F90AF"/>
<path fill-rule="evenodd" clip-rule="evenodd" d="M47 30C47 29.4477 47.4477 29 48 29H53C53.5523 29 54 29.4477 54 30C54 30.5523 53.5523 31 53 31H48C47.4477 31 47 30.5523 47 30Z" fill="#7F90AF"/>
<path fill-rule="evenodd" clip-rule="evenodd" d="M47 37C47 36.4477 47.4477 36 48 36H53C53.5523 36 54 36.4477 54 37C54 37.5523 53.5523 38 53 38H48C47.4477 38 47 37.5523 47 37Z" fill="#7F90AF"/>
<path fill-rule="evenodd" clip-rule="evenodd" d="M47 45C47 44.4477 47.4477 44 48 44H53C53.5523 44 54 44.4477 54 45C54 45.5523 53.5523 46 53 46H48C47.4477 46 47 45.5523 47 45Z" fill="#7F90AF"/>
<path fill-rule="evenodd" clip-rule="evenodd" d="M47 53C47 52.4477 47.4477 52 48 52H53C53.5523 52 54 52.4477 54 53C54 53.5523 53.5523 54 53 54H48C47.4477 54 47 53.5523 47 53Z" fill="#7F90AF"/>
<path d="M49 62L41 62C40.4477 62 40 62.4477 40 63V74H50V63C50 62.4477 49.5523 62 49 62Z" fill="#F5F7FA"/>
<path fill-rule="evenodd" clip-rule="evenodd" d="M52 74C52 75.1046 51.1046 76 50 76H40C38.8954 76 38 75.1046 38 74V63C38 61.3432 39.3431 60 41 60L49 60C50.6569 60 52 61.3431 52 63V74ZM50 63C50 62.4477 49.5523 62 49 62L41 62C40.4477 62 40 62.4477 40 63V74H50V63Z" fill="#7F90AF"/>
</svg>
