<svg width="139" height="14" viewBox="0 0 139 14" fill="none" xmlns="http://www.w3.org/2000/svg">
<path fill-rule="evenodd" clip-rule="evenodd" d="M0 0.233124H3.9775C5.9089 0.233124 7.38156 1.63083 7.38156 3.5925C7.38156 4.9126 6.73143 6.01909 5.56485 6.40788C7.26688 6.64071 8.33777 8.11676 8.33777 9.90252C8.33777 12.097 6.67445 13.7667 4.47496 13.7667H0V0.233124ZM3.90153 6.05827C5.33547 6.05827 6.38737 5.02865 6.38737 3.63094C6.38737 2.21327 5.35447 1.16518 3.92052 1.16518H0.994192V6.05827H3.90153ZM46.9484 0C48.9944 0 50.7922 0.854443 52.0355 2.27211L51.3656 2.9122C50.3144 1.66971 48.7651 0.932052 46.9484 0.932052C43.564 0.932052 41.0395 3.53382 41.0395 7.00998C41.0395 10.4662 43.564 13.0679 46.9484 13.0679C48.7651 13.0679 50.3524 12.3103 51.3853 11.0486L52.0734 11.6895C50.8309 13.1456 48.9944 14 46.9484 14C43.1045 14 40.0445 11.0094 40.0445 7.00998C40.0445 2.99055 43.0855 0 46.9484 0ZM61.6352 0C65.46 0 68.5193 2.99055 68.5193 7.00998C68.5193 11.0287 65.46 14 61.6352 14C57.7913 14 54.751 11.0287 54.751 7.00998C54.751 2.99055 57.7913 0 61.6352 0ZM120.98 0.0937965C123.126 0.0937965 125.024 1.05468 126.335 2.59134L124.341 4.30097C123.506 3.35931 122.31 2.78352 120.98 2.78352C118.627 2.78352 116.785 4.58923 116.785 7.0099C116.785 9.43058 118.627 11.2163 120.98 11.2163C122.31 11.2163 123.525 10.6405 124.36 9.67967L126.354 11.3893C125.043 12.9452 123.126 13.9061 120.98 13.9061C117.05 13.9061 113.861 11.0049 113.861 7.0099C113.861 3.01339 117.05 0.0937965 120.98 0.0937965ZM16.9818 0.233124L22.4707 13.7667H21.3998L19.9082 10.0777H13.2527L11.7808 13.7667H10.7091L16.198 0.233124H16.9818ZM26.7924 0.233124L35.2829 11.9418V0.233124H36.2778V13.7667H35.4552L26.9261 1.98044V13.7667H25.9319V0.233124H26.7924ZM87.4224 11.7829V13.695H74.1897V11.7829H87.4224ZM99.2985 0.305338C101.406 0.305338 103.077 1.74518 103.077 3.72459C103.077 5.01143 102.451 6.02996 101.387 6.41431C103.134 6.72105 104.045 8.06628 104.045 9.73747C104.045 12.0044 102.337 13.6948 100.02 13.6948H94.0398V0.305338H99.2985ZM110.386 0.305559V13.695H107.463V0.305559H110.386ZM138.467 0.305338V2.99432H132.354V5.51108H138.068V8.14315H132.354V11.0051H138.6V13.6948H129.429V0.305338H138.467ZM61.6352 0.95127C58.2888 0.95127 55.7262 3.57299 55.7262 7.00998C55.7262 10.4462 58.2508 13.0487 61.6352 13.0487C65.0012 13.0487 67.5061 10.4462 67.5061 7.00998C67.5061 3.57299 64.9625 0.95127 61.6352 0.95127ZM4.34128 6.99032C6.10029 6.99032 7.34358 8.23281 7.34358 9.90252C7.34358 11.5301 6.1452 12.7697 4.54445 12.8322L4.41725 12.8347H0.994192V6.99032H4.34128ZM99.4125 7.93176H96.9062V11.1396H99.4322C100.419 11.1396 101.14 10.4286 101.14 9.50686C101.14 8.60363 100.438 7.93176 99.4125 7.93176ZM87.4224 7.95637V9.86926H74.1897V7.95637H87.4224ZM16.5808 1.78679L13.6355 9.14564H19.5254L16.5808 1.78679ZM87.4224 4.13059V6.04348H74.1897V4.13059H87.4224ZM98.8427 2.84058H96.9062V5.64487H98.8237C99.6594 5.64487 100.248 5.04986 100.248 4.22424C100.248 3.43632 99.6594 2.84058 98.8427 2.84058ZM87.4224 0.306299V2.21845H74.1897V0.306299H87.4224Z" fill="#326295"/>
</svg>
