<svg width="56" height="56" viewBox="0 0 56 56" fill="none" xmlns="http://www.w3.org/2000/svg">
<path d="M48.364 28.0004C48.364 39.2469 39.2469 48.364 28.0004 48.364C16.7538 48.364 7.63672 39.2469 7.63672 28.0004C7.63672 16.7538 16.7538 7.63672 28.0004 7.63672C39.2469 7.63672 48.364 16.7538 48.364 28.0004Z" fill="#EBEFF5"/>
<path d="M14.6367 7.63672H10.1822C8.77636 7.63672 7.63672 8.77636 7.63672 10.1822V45.8185C7.63672 47.2244 8.77636 48.364 10.1822 48.364H30.5213L42.6367 33.3126V14.4246L35.0004 7.63672H14.6367Z" fill="white"/>
<path fill-rule="evenodd" clip-rule="evenodd" d="M10.1822 8.90945C9.47927 8.90945 8.90945 9.47927 8.90945 10.1822V45.8185C8.90945 46.5214 9.47926 47.0913 10.1822 47.0913H29.912L41.364 32.864V14.9961L34.5165 8.90945H10.1822ZM35.0004 7.63672L42.6367 14.4246V33.3126L30.5213 48.364H10.1822C8.77636 48.364 7.63672 47.2244 7.63672 45.8185V10.1822C7.63672 8.77636 8.77636 7.63672 10.1822 7.63672H35.0004Z" fill="#7F90AF"/>
<path fill-rule="evenodd" clip-rule="evenodd" d="M14 14.6364C14 14.2849 14.2849 14 14.6364 14H28C28.3515 14 28.6364 14.2849 28.6364 14.6364C28.6364 14.9878 28.3515 15.2727 28 15.2727H14.6364C14.2849 15.2727 14 14.9878 14 14.6364Z" fill="#7F90AF"/>
<path fill-rule="evenodd" clip-rule="evenodd" d="M14 34.3629C14 34.0115 14.2849 33.7266 14.6364 33.7266H21.6364C21.9878 33.7266 22.2727 34.0115 22.2727 34.3629C22.2727 34.7144 21.9878 34.9993 21.6364 34.9993H14.6364C14.2849 34.9993 14 34.7144 14 34.3629Z" fill="#7F90AF"/>
<path fill-rule="evenodd" clip-rule="evenodd" d="M21 34.3629C21 34.0115 21.2849 33.7266 21.6364 33.7266H28.6364C28.9878 33.7266 29.2727 34.0115 29.2727 34.3629C29.2727 34.7144 28.9878 34.9993 28.6364 34.9993H21.6364C21.2849 34.9993 21 34.7144 21 34.3629Z" fill="#7F90AF"/>
<path fill-rule="evenodd" clip-rule="evenodd" d="M14 41.3629C14 41.0115 14.2849 40.7266 14.6364 40.7266H21.6364C21.9878 40.7266 22.2727 41.0115 22.2727 41.3629C22.2727 41.7144 21.9878 41.9993 21.6364 41.9993H14.6364C14.2849 41.9993 14 41.7144 14 41.3629Z" fill="#7F90AF"/>
<path fill-rule="evenodd" clip-rule="evenodd" d="M16 41.3629C16 41.0115 16.2849 40.7266 16.6364 40.7266H23.6364C23.9878 40.7266 24.2727 41.0115 24.2727 41.3629C24.2727 41.7144 23.9878 41.9993 23.6364 41.9993H16.6364C16.2849 41.9993 16 41.7144 16 41.3629Z" fill="#7F90AF"/>
<path fill-rule="evenodd" clip-rule="evenodd" d="M14 21.6364C14 21.2849 14.2849 21 14.6364 21H34.3636C34.7151 21 35 21.2849 35 21.6364C35 21.9878 34.7151 22.2727 34.3636 22.2727H14.6364C14.2849 22.2727 14 21.9878 14 21.6364Z" fill="#7F90AF"/>
<path fill-rule="evenodd" clip-rule="evenodd" d="M14 27.9996C14 27.6482 14.2849 27.3633 14.6364 27.3633H34.3636C34.7151 27.3633 35 27.6482 35 27.9996C35 28.3511 34.7151 28.636 34.3636 28.636H14.6364C14.2849 28.636 14 28.3511 14 27.9996Z" fill="#7F90AF"/>
<path d="M35 14.6374V8.91016L41.3636 14.6374H35Z" fill="#EBEFF5"/>
<path fill-rule="evenodd" clip-rule="evenodd" d="M34.4825 7.74683C34.9416 7.54235 35.4781 7.62723 35.8517 7.96346L42.2153 13.6907C42.607 14.0433 42.7409 14.6007 42.5521 15.0927C42.3634 15.5847 41.8909 15.9095 41.3639 15.9095H35.0003C34.2974 15.9095 33.7275 15.3397 33.7275 14.6367V8.90947C33.7275 8.40686 34.0233 7.95132 34.4825 7.74683ZM35.0003 14.6367V8.90947L41.3639 14.6367H35.0003Z" fill="#7F90AF"/>
<path d="M40.6309 28.7031L43.7404 31.1635L36.3592 40.4922L33.2496 38.0318L40.6309 28.7031Z" fill="white" stroke="#7F90AF" stroke-linecap="round" stroke-linejoin="round"/>
<path d="M31.1764 36.3912L36.9173 29.1355C37.3524 28.5857 37.988 28.2313 38.6844 28.1501C39.3808 28.0689 40.0809 28.2677 40.6307 28.7028" stroke="#7F90AF" stroke-linecap="round" stroke-linejoin="round"/>
<path d="M44.9702 29.6089C45.2964 29.1966 45.4455 28.6715 45.3847 28.1492C45.3238 27.6269 45.058 27.1502 44.6456 26.824C44.2332 26.4977 43.7082 26.3486 43.1859 26.4095C42.6636 26.4703 42.1869 26.7362 41.8606 27.1485L40.6304 28.7033L43.74 31.1637L44.9702 29.6089Z" fill="#EBEFF5" stroke="#7F90AF" stroke-linecap="round" stroke-linejoin="round"/>
<path d="M33.249 38.0312L36.3586 40.4917L30.6176 47.7473L27.5081 45.2869L33.249 38.0312Z" fill="#EBEFF5" stroke="#7F90AF" stroke-linecap="round" stroke-linejoin="round"/>
<path d="M27.2012 45.7012C26.4626 47.1168 25.7987 48.5701 25.2123 50.0552C25.1382 50.231 25.1238 50.4262 25.1712 50.6109C25.2186 50.7957 25.3253 50.9598 25.4749 51.0781C25.6244 51.1965 25.8087 51.2625 25.9994 51.2662C26.1901 51.2699 26.3767 51.2109 26.5308 51.0984C27.8412 50.1862 29.1029 49.2059 30.3107 48.1616" fill="#C8D1E0"/>
<path d="M27.2012 45.7012C26.4626 47.1168 25.7987 48.5701 25.2123 50.0552C25.1382 50.231 25.1238 50.4262 25.1712 50.6109C25.2186 50.7957 25.3253 50.9598 25.4749 51.0781C25.6244 51.1965 25.8087 51.2625 25.9994 51.2662C26.1901 51.2699 26.3767 51.2109 26.5308 51.0984C27.8412 50.1862 29.1029 49.2059 30.3107 48.1616" stroke="#7F90AF" stroke-linecap="round" stroke-linejoin="round"/>
</svg>
