<svg width="56" height="56" viewBox="0 0 56 56" fill="none" xmlns="http://www.w3.org/2000/svg">
<path d="M48.364 28.0004C48.364 39.2469 39.2469 48.364 28.0004 48.364C16.7538 48.364 7.63672 39.2469 7.63672 28.0004C7.63672 16.7538 16.7538 7.63672 28.0004 7.63672C39.2469 7.63672 48.364 16.7538 48.364 28.0004Z" fill="#EBEFF5"/>
<path d="M12.7275 20.3627C12.7275 17.9026 14.7219 15.9082 17.1821 15.9082H43.9094C46.3695 15.9082 48.3639 17.9026 48.3639 20.3627V36.2718C48.3639 38.732 46.3695 40.7264 43.9094 40.7264H17.1821C14.7219 40.7264 12.7275 38.732 12.7275 36.2718V20.3627Z" fill="white"/>
<path d="M12.7275 35H48.3639V36.2727C48.3639 38.3815 46.6544 40.0909 44.5457 40.0909H16.5457C14.437 40.0909 12.7275 38.3815 12.7275 36.2727V35Z" fill="#C8D1E0"/>
<path d="M36.1458 48.3642H25.2852L26.6427 40.2188H34.7882L36.1458 48.3642Z" fill="#F5F7FA"/>
<path fill-rule="evenodd" clip-rule="evenodd" d="M26.0147 40.1138C26.0658 39.8069 26.3313 39.582 26.6424 39.582H34.7878C35.0989 39.582 35.3644 39.8069 35.4155 40.1138L36.7731 48.2592C36.8039 48.4437 36.7519 48.6324 36.631 48.7752C36.5101 48.9179 36.3325 49.0002 36.1454 49.0002H25.2848C25.0977 49.0002 24.9202 48.9179 24.7992 48.7752C24.6783 48.6324 24.6263 48.4437 24.6571 48.2592L26.0147 40.1138ZM27.1815 40.8548L26.036 47.7275H35.3942L34.2488 40.8548H27.1815Z" fill="#7F90AF"/>
<path fill-rule="evenodd" clip-rule="evenodd" d="M20.5762 48.3629C20.5762 48.0115 20.8611 47.7266 21.2125 47.7266H40.2186C40.57 47.7266 40.855 48.0115 40.855 48.3629C40.855 48.7144 40.57 48.9993 40.2186 48.9993H21.2125C20.8611 48.9993 20.5762 48.7144 20.5762 48.3629Z" fill="#7F90AF"/>
<path fill-rule="evenodd" clip-rule="evenodd" d="M20.3641 15.7809C20.3641 15.4294 20.649 15.1445 21.0004 15.1445H45.6488C46.5377 15.1445 47.3902 15.4976 48.0187 16.1262C48.6473 16.7547 49.0004 17.6072 49.0004 18.496V37.5021C49.0004 38.391 48.6473 39.2435 48.0187 39.872C47.3902 40.5005 46.5377 40.8536 45.6488 40.8536H15.7822C14.8933 40.8536 14.0408 40.5005 13.4123 39.872C12.7838 39.2434 12.4307 38.391 12.4307 37.5021V29.2719C12.4307 28.9205 12.7156 28.6356 13.067 28.6356C13.4185 28.6356 13.7034 28.9205 13.7034 29.2719V37.5021C13.7034 38.0534 13.9224 38.5822 14.3123 38.972C14.7021 39.3619 15.2309 39.5809 15.7822 39.5809H45.6488C46.2002 39.5809 46.7289 39.3619 47.1188 38.972C47.5086 38.5822 47.7276 38.0534 47.7276 37.5021V18.496C47.7276 17.9447 47.5086 17.416 47.1188 17.0261C46.7289 16.6363 46.2002 16.4173 45.6488 16.4173H21.0004C20.649 16.4173 20.3641 16.1323 20.3641 15.7809Z" fill="#7F90AF"/>
<path fill-rule="evenodd" clip-rule="evenodd" d="M22.9092 23.5446C22.9092 23.1931 23.1941 22.9082 23.5455 22.9082H37.5455C37.897 22.9082 38.1819 23.1931 38.1819 23.5446C38.1819 23.896 37.897 24.1809 37.5455 24.1809H23.5455C23.1941 24.1809 22.9092 23.896 22.9092 23.5446Z" fill="#7F90AF"/>
<path fill-rule="evenodd" clip-rule="evenodd" d="M22.9092 26.2008C22.9092 25.8494 23.1941 25.5645 23.5455 25.5645H37.5455C37.897 25.5645 38.1819 25.8494 38.1819 26.2008C38.1819 26.5523 37.897 26.8372 37.5455 26.8372H23.5455C23.1941 26.8372 22.9092 26.5523 22.9092 26.2008Z" fill="#7F90AF"/>
<path fill-rule="evenodd" clip-rule="evenodd" d="M22.9092 28.8571C22.9092 28.5056 23.1941 28.2207 23.5455 28.2207H33.7274C34.0788 28.2207 34.3637 28.5056 34.3637 28.8571C34.3637 29.2085 34.0788 29.4934 33.7274 29.4934H23.5455C23.1941 29.4934 22.9092 29.2085 22.9092 28.8571Z" fill="#7F90AF"/>
<path fill-rule="evenodd" clip-rule="evenodd" d="M12.4307 34.7887C12.4307 34.4373 12.7156 34.1523 13.067 34.1523H48.364C48.7155 34.1523 49.0004 34.4373 49.0004 34.7887C49.0004 35.1402 48.7155 35.4251 48.364 35.4251H13.067C12.7156 35.4251 12.4307 35.1402 12.4307 34.7887Z" fill="#7F90AF"/>
<path d="M7.63672 10.1822C7.63672 8.77636 8.77636 7.63672 10.1822 7.63672H18.4549C19.8607 7.63672 21.0004 8.77636 21.0004 10.1822V26.7276C21.0004 28.1334 19.8607 29.2731 18.4549 29.2731H10.1822C8.77636 29.2731 7.63672 28.1334 7.63672 26.7276V10.1822Z" fill="white"/>
<path fill-rule="evenodd" clip-rule="evenodd" d="M10.1816 12.7282C10.1816 12.3767 10.4666 12.0918 10.818 12.0918H17.818C18.1695 12.0918 18.4544 12.3767 18.4544 12.7282C18.4544 13.0796 18.1695 13.3645 17.818 13.3645H10.818C10.4666 13.3645 10.1816 13.0796 10.1816 12.7282Z" fill="#7F90AF"/>
<path fill-rule="evenodd" clip-rule="evenodd" d="M10.1816 15.3825C10.1816 15.031 10.4666 14.7461 10.818 14.7461H17.818C18.1695 14.7461 18.4544 15.031 18.4544 15.3825C18.4544 15.7339 18.1695 16.0188 17.818 16.0188H10.818C10.4666 16.0188 10.1816 15.7339 10.1816 15.3825Z" fill="#7F90AF"/>
<path fill-rule="evenodd" clip-rule="evenodd" d="M10.1816 18.0387C10.1816 17.6873 10.4666 17.4023 10.818 17.4023H17.818C18.1695 17.4023 18.4544 17.6873 18.4544 18.0387C18.4544 18.3902 18.1695 18.6751 17.818 18.6751H10.818C10.4666 18.6751 10.1816 18.3902 10.1816 18.0387Z" fill="#7F90AF"/>
<path fill-rule="evenodd" clip-rule="evenodd" d="M10.1816 20.695C10.1816 20.3435 10.4666 20.0586 10.818 20.0586H15.9089C16.2604 20.0586 16.5453 20.3435 16.5453 20.695C16.5453 21.0464 16.2604 21.3313 15.9089 21.3313H10.818C10.4666 21.3313 10.1816 21.0464 10.1816 20.695Z" fill="#7F90AF"/>
<path d="M7.63672 25.4551H21.0004V26.7278C21.0004 28.1336 19.8607 29.2733 18.4549 29.2733H10.1822C8.77636 29.2733 7.63672 28.1336 7.63672 26.7278V25.4551Z" fill="#EBEFF5"/>
<path fill-rule="evenodd" clip-rule="evenodd" d="M7 10.1818C7 8.42455 8.42455 7 10.1818 7H18.6667C20.4239 7 21.8485 8.42455 21.8485 10.1818V26.8121C21.8485 28.5694 20.4239 29.9939 18.6667 29.9939H10.1818C8.42455 29.9939 7 28.5694 7 26.8121V10.1818ZM10.1818 8.27273C9.12746 8.27273 8.27273 9.12746 8.27273 10.1818V26.8121C8.27273 27.8665 9.12746 28.7212 10.1818 28.7212H18.6667C19.721 28.7212 20.5758 27.8665 20.5758 26.8121V10.1818C20.5758 9.12746 19.721 8.27273 18.6667 8.27273H10.1818Z" fill="#7F90AF"/>
<path fill-rule="evenodd" clip-rule="evenodd" d="M7 25.8356C7 25.4841 7.28491 25.1992 7.63636 25.1992H21.2121C21.5636 25.1992 21.8485 25.4841 21.8485 25.8356C21.8485 26.187 21.5636 26.4719 21.2121 26.4719H7.63636C7.28491 26.4719 7 26.187 7 25.8356Z" fill="#7F90AF"/>
</svg>
