<svg width="32" height="32" viewBox="0 0 32 32" fill="none" xmlns="http://www.w3.org/2000/svg">
<path d="M4.26666 0H27.7333C30.0864 0 32 1.7841 32 3.97792V30.8289C32 31.2028 31.776 31.5469 31.4176 31.716C31.264 31.7876 31.0976 31.8234 30.9333 31.8234C30.7115 31.8234 30.4896 31.7577 30.304 31.6305L26 27.8455H4.26666C1.9136 27.8455 0 26.0614 0 23.8675V3.97792C0 1.7841 1.9136 0 4.26666 0Z" fill="#1976D2"/>
<path d="M10 19.7471V17.921H22V19.7471H10Z" fill="white"/>
<path d="M10 16.0935V14.2667H22V16.0935H10Z" fill="white"/>
<path d="M10 12.4399V10.6131H22V12.4399H10Z" fill="white"/>
<path d="M10 8.78703V6.96094H22V8.78703H10Z" fill="white"/>
</svg>
