<svg width="24" height="24" viewBox="0 0 24 24" fill="none" xmlns="http://www.w3.org/2000/svg">
<path d="M19.5 7.40039H4C3.4 7.40039 3 7.00039 3 6.40039C3 5.80039 3.4 5.40039 4 5.40039H19.5C20.1 5.40039 20.5 5.80039 20.5 6.40039C20.5 7.00039 20.1 7.40039 19.5 7.40039Z" fill="#7F90AF"/>
<path d="M16.1002 21.2H7.4002C5.9002 21.2 4.7002 20 4.7002 18.5V8.7H6.7002V18.5C6.7002 18.9 7.0002 19.2 7.4002 19.2H16.0002C16.4002 19.2 16.7002 18.9 16.7002 18.5V8.7H18.7002V18.5C18.8002 20 17.6002 21.2 16.1002 21.2ZM16.2002 7.4H14.2002V4.7C14.2002 4.3 13.9002 4 13.5002 4H10.0002C9.6002 4 9.3002 4.3 9.3002 4.7V7.4H7.3002V4.7C7.3002 3.2 8.5002 2 10.0002 2H13.4002C14.9002 2 16.1002 3.2 16.1002 4.7V7.4H16.2002Z" fill="#7F90AF"/>
<path d="M10 16.8998C9.4 16.8998 9 16.4998 9 15.8998V10.7998C9 10.1998 9.4 9.7998 10 9.7998C10.6 9.7998 11 10.1998 11 10.7998V15.9998C11 16.4998 10.6 16.8998 10 16.8998Z" fill="#7F90AF"/>
<path d="M13.5 16.8998C12.9 16.8998 12.5 16.4998 12.5 15.8998V10.7998C12.5 10.1998 12.9 9.7998 13.5 9.7998C14.1 9.7998 14.5 10.1998 14.5 10.7998V15.9998C14.5 16.4998 14 16.8998 13.5 16.8998Z" fill="#7F90AF"/>
</svg>
