<svg id="Layer_1" data-name="Layer 1" xmlns="http://www.w3.org/2000/svg" viewBox="0 0 95 95"><defs><style>.cls-1{fill:#fff;}</style></defs><title>iconomail</title><circle class="cls-1" cx="47.5" cy="47.5" r="47.5"/><path d="M77,24.2H21.6a5.91,5.91,0,0,0-5.9,5.9V69.5a5.91,5.91,0,0,0,5.9,5.9H77a5.91,5.91,0,0,0,5.9-5.9V30.2a5.93,5.93,0,0,0-5.9-6Zm-.8,4L49.4,55l-27-26.8ZM19.6,68.8V30.9l19,18.8Zm2.8,2.7,19-19,6.7,6.6a1.93,1.93,0,0,0,2.8,0l6.5-6.5L76.3,71.5ZM79,68.8,60.1,49.9,79,31Z" transform="translate(-2 -3)"/></svg>