<svg id="Layer_1" data-name="Layer 1" xmlns="http://www.w3.org/2000/svg" viewBox="0 0 35.21 35.21"><defs><style>.cls-1{fill:#9d9d9c;fill-rule:evenodd;}.cls-2{fill:#fff;}</style></defs><title>Copia de icono instagram</title><path class="cls-1" d="M44,80.19A17.61,17.61,0,1,1,26.4,97.8,17.6,17.6,0,0,1,44,80.19Z" transform="translate(-26.4 -80.19)"/><path class="cls-2" d="M50.38,87.14h-13a4.1,4.1,0,0,0-4.1,4.09v13a4.11,4.11,0,0,0,4.1,4.1h13a4.11,4.11,0,0,0,4.1-4.1v-13A4.1,4.1,0,0,0,50.38,87.14Zm1.18,2.44H52v3.59H48.44V89.59Zm-10.7,6a3.7,3.7,0,0,1,6,0,2.64,2.64,0,0,1,.23.35,3.73,3.73,0,1,1-6.5,0A2.64,2.64,0,0,1,40.86,95.56Zm11.55,8.67a2,2,0,0,1-2,2h-13a2,2,0,0,1-2-2V95.56h3.16a5.27,5.27,0,0,0-.2.6,5.42,5.42,0,0,0-.22,1.57,5.79,5.79,0,1,0,11.58,0,5.42,5.42,0,0,0-.22-1.57,5.27,5.27,0,0,0-.2-.6h3.16v8.67Z" transform="translate(-26.4 -80.19)"/></svg>