<svg width="130" height="134" viewBox="0 0 130 134" fill="none" xmlns="http://www.w3.org/2000/svg">
<rect width="8" height="122" fill="#35D5CF"/>
<path d="M83.0435 100.724C83.0405 100.006 83.6001 99.4213 84.2906 99.4213C84.975 99.4213 85.5346 100.006 85.5377 100.724C85.5346 101.083 85.3977 101.407 85.1696 101.645C84.9445 101.88 84.6343 102.026 84.2906 102.026C83.6001 102.026 83.0405 101.442 83.0435 100.724Z" fill="#BFCAE0"/>
<path d="M68.2813 100.733C68.2813 100.012 68.838 99.4305 69.5284 99.4305C70.2189 99.4305 70.7755 100.015 70.7755 100.733C70.7755 101.089 70.6386 101.419 70.4135 101.654C70.1885 101.893 69.8721 102.036 69.5315 102.036C68.841 102.036 68.2844 101.451 68.2813 100.733Z" fill="#BFCAE0"/>
<path d="M53.5236 100.722C53.5236 100.002 54.0833 99.4213 54.7707 99.4213C55.4551 99.4213 56.0147 100.005 56.0178 100.722C56.0147 101.081 55.8778 101.404 55.6497 101.642C55.4246 101.88 55.1144 102.023 54.7676 102.026C54.0833 102.02 53.5236 101.436 53.5236 100.722Z" fill="#BFCAE0"/>
<path d="M129.807 100.72C129.81 101.079 129.67 101.403 129.445 101.642C129.219 101.877 128.909 102.024 128.562 102.02C127.873 102.024 127.313 101.438 127.313 100.716C127.313 100.001 127.873 99.4154 128.559 99.4154C129.25 99.4154 129.81 100.001 129.807 100.72Z" fill="#BFCAE0"/>
<path d="M115.051 100.73C115.051 101.089 114.911 101.413 114.683 101.651C114.458 101.886 114.148 102.032 113.804 102.032C113.113 102.032 112.557 101.451 112.557 100.73C112.554 100.012 113.113 99.4274 113.804 99.4274C114.497 99.4274 115.051 100.009 115.051 100.73Z" fill="#BFCAE0"/>
<path d="M100.29 100.724C100.293 101.083 100.15 101.41 99.9278 101.645C99.6994 101.883 99.3918 102.026 99.0447 102.026C98.3595 102.026 97.7991 101.442 97.7961 100.724C97.7991 100.006 98.3564 99.4213 99.0447 99.4213C99.7329 99.4213 100.293 100.006 100.29 100.724Z" fill="#BFCAE0"/>
<path d="M41.2556 100.724C41.2556 101.083 41.1157 101.407 40.8875 101.645C40.6625 101.88 40.3522 102.026 40.0085 102.026C39.3181 102.026 38.7614 101.445 38.7614 100.724C38.7614 100.003 39.3181 99.4213 40.0085 99.4213C40.699 99.4213 41.2556 100.003 41.2556 100.724Z" fill="#BFCAE0"/>
<path d="M26.4941 100.718C26.4972 101.077 26.3571 101.404 26.1317 101.639C25.9064 101.874 25.5957 102.02 25.2486 102.02C24.5634 102.02 24.003 101.436 24 100.718C24.003 99.9997 24.5603 99.4151 25.2486 99.4151C25.9399 99.4183 26.4972 99.9997 26.4941 100.718Z" fill="#BFCAE0"/>
<path d="M100.293 116.25C100.29 116.609 100.153 116.933 99.9252 117.171C99.7001 117.406 99.3898 117.552 99.0461 117.552C98.3557 117.552 97.799 116.971 97.799 116.25C97.796 115.532 98.3557 114.947 99.0461 114.947C99.7335 114.954 100.29 115.532 100.293 116.25Z" fill="#BFCAE0"/>
<path d="M85.5339 116.25C85.537 116.609 85.3938 116.936 85.1715 117.171C84.9462 117.406 84.6325 117.556 84.2884 117.552C83.6002 117.556 83.0398 116.971 83.0398 116.25C83.0429 115.532 83.6002 114.951 84.2884 114.947C84.9766 114.951 85.5339 115.532 85.5339 116.25Z" fill="#BFCAE0"/>
<path d="M129.81 116.25C129.81 116.609 129.67 116.936 129.445 117.171C129.22 117.406 128.907 117.549 128.563 117.549C127.873 117.549 127.316 116.968 127.316 116.247C127.313 115.529 127.873 114.944 128.563 114.944C129.25 114.954 129.807 115.532 129.81 116.25Z" fill="#BFCAE0"/>
<path d="M68.2813 116.261C68.2813 115.54 68.841 114.96 69.5284 114.96C70.2128 114.96 70.7725 115.544 70.7755 116.261C70.7725 116.619 70.6356 116.943 70.4075 117.181C70.1824 117.416 69.8721 117.562 69.5254 117.565C68.838 117.558 68.2813 116.975 68.2813 116.261Z" fill="#BFCAE0"/>
<path d="M38.7644 116.25C38.7644 115.529 39.324 114.947 40.0115 114.947C40.6989 114.944 41.2585 115.529 41.2585 116.25C41.2585 116.609 41.1186 116.933 40.8935 117.168C40.6685 117.403 40.3582 117.549 40.0115 117.552C39.321 117.549 38.7644 116.965 38.7644 116.25Z" fill="#BFCAE0"/>
<path d="M113.804 114.95C114.493 114.947 115.054 115.533 115.051 116.251C115.054 116.611 114.911 116.938 114.688 117.174C114.462 117.409 114.151 117.555 113.804 117.555C113.115 117.559 112.554 116.973 112.557 116.255C112.554 115.529 113.115 114.947 113.804 114.95Z" fill="#BFCAE0"/>
<path d="M25.253 114.941C25.9404 114.944 26.497 115.526 26.5001 116.244C26.497 116.603 26.3601 116.927 26.132 117.165C25.9069 117.4 25.5967 117.546 25.253 117.546C24.5625 117.546 24.0059 116.965 24.0059 116.244C24.0029 115.523 24.5625 114.941 25.253 114.941Z" fill="#BFCAE0"/>
<path d="M56.0141 116.253C56.0141 116.609 55.8741 116.939 55.6491 117.174C55.424 117.409 55.1107 117.552 54.767 117.552C54.0796 117.556 53.5199 116.971 53.5199 116.25C53.5199 115.529 54.0765 114.947 54.767 114.947C55.4605 114.954 56.0171 115.535 56.0141 116.253Z" fill="#BFCAE0"/>
<path d="M112.56 131.778C112.557 131.059 113.117 130.473 113.808 130.473C114.495 130.477 115.052 131.059 115.055 131.778C115.052 132.137 114.918 132.465 114.69 132.7C114.465 132.935 114.151 133.078 113.808 133.078C113.117 133.078 112.56 132.496 112.56 131.778Z" fill="#BFCAE0"/>
<path d="M97.802 131.776C97.802 131.055 98.3586 130.473 99.0491 130.473C99.7365 130.47 100.296 131.055 100.296 131.776C100.296 132.132 100.156 132.459 99.9281 132.697C99.7 132.932 99.3897 133.078 99.046 133.078C98.3586 133.078 97.799 132.494 97.802 131.776Z" fill="#BFCAE0"/>
<path d="M41.2556 131.779C41.2556 132.141 41.1157 132.465 40.8906 132.7C40.6655 132.935 40.3553 133.082 40.0085 133.078C39.3211 133.082 38.7614 132.497 38.7614 131.776C38.7614 131.061 39.3211 130.477 40.0085 130.473C40.6959 130.48 41.2556 131.064 41.2556 131.779Z" fill="#BFCAE0"/>
<path d="M83.0398 131.776C83.0398 131.055 83.5995 130.473 84.2869 130.473C84.9774 130.473 85.534 131.055 85.534 131.776C85.534 132.135 85.3971 132.459 85.172 132.697C84.9469 132.936 84.6336 133.075 84.2899 133.078C83.5995 133.075 83.0429 132.494 83.0398 131.776Z" fill="#BFCAE0"/>
<path d="M70.7725 131.791C70.7725 132.154 70.6357 132.478 70.4075 132.713C70.1825 132.948 69.8722 133.094 69.5255 133.091C68.8381 133.094 68.2784 132.509 68.2784 131.788C68.2814 131.07 68.8381 130.489 69.5255 130.486C70.2129 130.492 70.7725 131.073 70.7725 131.791Z" fill="#BFCAE0"/>
<path d="M53.5236 131.776C53.5236 131.055 54.0833 130.473 54.7707 130.473C55.4581 130.47 56.0178 131.055 56.0178 131.776C56.0178 132.132 55.8778 132.459 55.6528 132.694C55.4277 132.929 55.1174 133.075 54.7707 133.078C54.0833 133.075 53.5236 132.491 53.5236 131.776Z" fill="#BFCAE0"/>
<path d="M127.316 131.773C127.316 131.052 127.876 130.47 128.565 130.47C129.25 130.47 129.81 131.055 129.81 131.773C129.81 132.132 129.67 132.456 129.445 132.691C129.219 132.929 128.909 133.072 128.562 133.075C127.873 133.072 127.316 132.488 127.316 131.773Z" fill="#BFCAE0"/>
<path d="M24.0059 131.77C24.0059 131.049 24.5656 130.467 25.253 130.467C25.9404 130.464 26.5001 131.049 26.5001 131.77C26.5001 132.129 26.3602 132.453 26.1351 132.688C25.91 132.923 25.5967 133.072 25.253 133.072C24.5625 133.072 24.0029 132.488 24.0059 131.77Z" fill="#BFCAE0"/>
<path d="M112.557 85.2008C112.56 84.4828 113.119 83.8983 113.804 83.8983C114.494 83.8983 115.051 84.4828 115.051 85.2008C115.054 85.5598 114.914 85.8838 114.689 86.1221C114.461 86.3572 114.154 86.5033 113.807 86.5033C113.119 86.5002 112.56 85.9188 112.557 85.2008Z" fill="#BFCAE0"/>
<path d="M97.802 85.1946C97.802 84.4735 98.3586 83.8921 99.0491 83.8921C99.7365 83.889 100.296 84.4735 100.296 85.1946C100.296 85.5536 100.156 85.8777 99.9281 86.1159C99.703 86.351 99.3928 86.4972 99.0491 86.4972C98.3586 86.494 97.799 85.9126 97.802 85.1946Z" fill="#BFCAE0"/>
<path d="M127.319 85.1946C127.319 84.4735 127.876 83.8921 128.566 83.8921C129.256 83.8921 129.813 84.4735 129.813 85.1946C129.813 85.5536 129.673 85.8777 129.448 86.1128C129.223 86.3478 128.91 86.4972 128.566 86.4972C127.876 86.494 127.319 85.9158 127.319 85.1946Z" fill="#BFCAE0"/>
<path d="M41.2556 85.1946C41.2556 85.5568 41.1157 85.8808 40.8906 86.1191C40.6655 86.3542 40.3553 86.5003 40.0085 86.4971C39.3211 86.5003 38.7614 85.9158 38.7614 85.1946C38.7614 84.4798 39.3211 83.8953 40.0085 83.8921C40.6959 83.8953 41.2556 84.4798 41.2556 85.1946Z" fill="#BFCAE0"/>
<path d="M83.0398 85.1946C83.0398 84.4735 83.5995 83.8921 84.2869 83.8921C84.9774 83.8921 85.534 84.4735 85.534 85.1946C85.534 85.5536 85.3941 85.8808 85.172 86.1159C84.9469 86.351 84.6336 86.494 84.2899 86.4972C83.5995 86.494 83.0429 85.9126 83.0398 85.1946Z" fill="#BFCAE0"/>
<path d="M53.5236 85.1916C53.5236 84.4704 54.0802 83.889 54.7707 83.889C55.4611 83.889 56.0178 84.4704 56.0178 85.1916C56.0178 85.5505 55.8778 85.8746 55.6528 86.1097C55.4246 86.3448 55.1144 86.4941 54.7707 86.4941C54.0802 86.4909 53.5236 85.9127 53.5236 85.1916Z" fill="#BFCAE0"/>
<path d="M24.0059 85.1885C24.0059 84.4673 24.5625 83.886 25.253 83.886C25.9404 83.8828 26.5001 84.4673 26.5001 85.1885C26.5001 85.5475 26.3601 85.8715 26.132 86.1098C25.9069 86.3449 25.5967 86.491 25.253 86.491C24.5625 86.4878 24.0029 85.9065 24.0059 85.1885Z" fill="#BFCAE0"/>
<path d="M69.5284 83.9014C70.2128 83.9014 70.7725 84.4859 70.7755 85.2039C70.7725 85.5629 70.6356 85.8869 70.4075 86.1252C70.1824 86.3603 69.8721 86.5064 69.5284 86.5064C68.838 86.5064 68.2813 85.9219 68.2813 85.2039C68.2813 84.4859 68.838 83.9014 69.5284 83.9014Z" fill="#BFCAE0"/>
<path d="M38.7644 69.6686C38.7644 68.9474 39.321 68.3661 40.0115 68.366C40.6989 68.3629 41.2585 68.9474 41.2585 69.6686C41.2585 70.0276 41.1186 70.3516 40.8935 70.5867C40.6685 70.8218 40.3582 70.9679 40.0115 70.9711C39.321 70.9647 38.7644 70.3834 38.7644 69.6686Z" fill="#BFCAE0"/>
<path d="M24.0059 69.664C24.0029 68.9451 24.5625 68.3599 25.253 68.3599C25.9404 68.3631 26.497 68.9451 26.5001 69.664C26.497 70.0234 26.3601 70.351 26.1351 70.5864C25.91 70.8218 25.5967 70.9649 25.253 70.9649C24.5625 70.9649 24.0059 70.3828 24.0059 69.664Z" fill="#BFCAE0"/>
<path d="M85.5339 69.6717C85.537 70.0307 85.394 70.3579 85.1689 70.593C84.9439 70.8281 84.6336 70.9742 84.2869 70.971C83.5995 70.9742 83.0398 70.3897 83.0398 69.6685C83.0429 68.9506 83.5995 68.3692 84.2869 68.366C84.9773 68.3692 85.5339 68.9537 85.5339 69.6717Z" fill="#BFCAE0"/>
<path d="M112.56 69.6747C112.56 68.9536 113.117 68.3722 113.808 68.3722C114.495 68.369 115.055 68.9536 115.055 69.6747C115.055 70.0305 114.915 70.3578 114.69 70.5929C114.462 70.8279 114.151 70.9773 113.808 70.9773C113.117 70.9741 112.557 70.3927 112.56 69.6747Z" fill="#BFCAE0"/>
<path d="M68.2813 69.6778C68.2813 68.9567 68.841 68.3753 69.5284 68.3753C70.2189 68.3753 70.7755 68.9567 70.7755 69.6778C70.7755 70.0336 70.6356 70.3608 70.4105 70.5959C70.1824 70.831 69.8752 70.9772 69.5284 70.9803C68.838 70.974 68.2844 70.3926 68.2813 69.6778Z" fill="#BFCAE0"/>
<path d="M56.0141 69.6686C56.0141 70.0308 55.8741 70.3548 55.6491 70.5899C55.424 70.825 55.1137 70.9711 54.767 70.968C54.0796 70.9711 53.5199 70.3866 53.5199 69.6655C53.523 68.9475 54.0796 68.3661 54.767 68.363C55.4574 68.3693 56.0141 68.9538 56.0141 69.6686Z" fill="#BFCAE0"/>
<path d="M100.293 69.6717C100.29 70.0307 100.156 70.3579 99.9282 70.593C99.7001 70.8313 99.3898 70.9711 99.0461 70.9711C98.3557 70.9711 97.799 70.3897 97.799 69.6686C97.796 68.9506 98.3557 68.366 99.0461 68.366C99.7335 68.3724 100.29 68.9538 100.293 69.6717Z" fill="#BFCAE0"/>
<path d="M129.81 69.6717C129.81 70.0339 129.67 70.3579 129.445 70.593C129.22 70.8281 128.91 70.9742 128.563 70.971C127.876 70.9742 127.316 70.3897 127.316 69.6685C127.313 68.9506 127.873 68.366 128.563 68.366C129.25 68.3724 129.81 68.9569 129.81 69.6717Z" fill="#BFCAE0"/>
</svg>
