<svg width="192" height="192" viewBox="0 0 192 192" fill="none" xmlns="http://www.w3.org/2000/svg">
<rect width="192" height="192" fill="white"/>
<path d="M165.82 95.9998C165.82 134.559 134.561 165.818 96.0018 165.818C57.4423 165.818 26.1836 134.559 26.1836 95.9998C26.1836 57.4403 57.4423 26.1816 96.0018 26.1816C134.561 26.1816 165.82 57.4403 165.82 95.9998Z" fill="#EBEFF5"/>
<path d="M43.6367 82.9087H148.364V137.454H43.6367V82.9087Z" fill="white"/>
<path d="M157.523 82.909H34.484C28.6547 82.909 26.1565 76.3475 30.7366 73.2281L92.2562 31.5999C93.392 30.9095 94.6858 30.5454 96.0035 30.5454C97.3213 30.5454 98.6151 30.9095 99.7509 31.5999L161.27 73.2281C165.851 76.3475 163.352 82.909 157.523 82.909Z" fill="white"/>
<path fill-rule="evenodd" clip-rule="evenodd" d="M93.4286 33.439L31.9624 75.0311C31.9616 75.0316 31.9608 75.0321 31.96 75.0327C30.5369 76.0032 30.3116 77.3387 30.7408 78.455C31.1879 79.6178 32.4429 80.7269 34.4816 80.7269H157.521C159.559 80.7269 160.814 79.6178 161.261 78.455C161.691 77.3386 161.465 76.0031 160.042 75.0326C160.041 75.0321 160.041 75.0316 160.04 75.0311L98.5736 33.439C97.7865 32.9706 96.8997 32.7269 96.0011 32.7269C95.1026 32.7269 94.2157 32.9706 93.4286 33.439ZM91.1204 29.7353C92.5946 28.8391 94.28 28.3633 96.0011 28.3633C97.7223 28.3633 99.4076 28.8391 100.882 29.7353C100.912 29.7537 100.942 29.7728 100.971 29.7926L162.496 71.4245C165.651 73.5732 166.466 77.0774 165.334 80.0211C164.22 82.9189 161.311 85.0906 157.521 85.0906H34.4816C30.6909 85.0906 27.7822 82.9189 26.6679 80.0211C25.536 77.0774 26.3511 73.5732 29.506 71.4245L29.5114 71.4208L91.031 29.7926C91.0603 29.7728 91.0901 29.7537 91.1204 29.7353Z" fill="#7F90AF"/>
<path d="M158.437 137.455H33.57C30.6966 137.455 28.3672 139.799 28.3672 142.691V158.4C28.3672 161.292 30.6966 163.636 33.57 163.636H158.437C161.311 163.636 163.64 161.292 163.64 158.4V142.691C163.64 139.799 161.311 137.455 158.437 137.455Z" fill="white"/>
<path fill-rule="evenodd" clip-rule="evenodd" d="M33.5682 139.636C31.913 139.636 30.5472 140.99 30.5472 142.691V158.4C30.5472 160.1 31.913 161.454 33.5682 161.454H158.435C160.091 161.454 161.456 160.1 161.456 158.4V142.691C161.456 140.99 160.091 139.636 158.435 139.636H33.5682ZM26.1836 142.691C26.1836 138.607 29.4766 135.272 33.5682 135.272H158.435C162.527 135.272 165.82 138.607 165.82 142.691V158.4C165.82 162.483 162.527 165.818 158.435 165.818H33.5682C29.4766 165.818 26.1836 162.483 26.1836 158.4V142.691Z" fill="#7F90AF"/>
<path fill-rule="evenodd" clip-rule="evenodd" d="M43.6388 80.7271C44.8438 80.7271 45.8207 81.7039 45.8207 82.9089V137.454C45.8207 138.659 44.8438 139.636 43.6388 139.636C42.4339 139.636 41.457 138.659 41.457 137.454V82.9089C41.457 81.7039 42.4339 80.7271 43.6388 80.7271Z" fill="#7F90AF"/>
<path fill-rule="evenodd" clip-rule="evenodd" d="M69.8185 80.7271C71.0235 80.7271 72.0004 81.7039 72.0004 82.9089V137.454C72.0004 138.659 71.0235 139.636 69.8185 139.636C68.6136 139.636 67.6367 138.659 67.6367 137.454V82.9089C67.6367 81.7039 68.6136 80.7271 69.8185 80.7271Z" fill="#7F90AF"/>
<path fill-rule="evenodd" clip-rule="evenodd" d="M96.0021 80.7271C97.2071 80.7271 98.1839 81.7039 98.1839 82.9089V137.454C98.1839 138.659 97.2071 139.636 96.0021 139.636C94.7971 139.636 93.8203 138.659 93.8203 137.454V82.9089C93.8203 81.7039 94.7971 80.7271 96.0021 80.7271Z" fill="#7F90AF"/>
<path fill-rule="evenodd" clip-rule="evenodd" d="M120.002 80.7271C121.207 80.7271 122.184 81.7039 122.184 82.9089V137.454C122.184 138.659 121.207 139.636 120.002 139.636C118.797 139.636 117.82 138.659 117.82 137.454V82.9089C117.82 81.7039 118.797 80.7271 120.002 80.7271Z" fill="#7F90AF"/>
<path fill-rule="evenodd" clip-rule="evenodd" d="M148.365 80.7271C149.57 80.7271 150.547 81.7039 150.547 82.9089V137.454C150.547 138.659 149.57 139.636 148.365 139.636C147.16 139.636 146.184 138.659 146.184 137.454V82.9089C146.184 81.7039 147.16 80.7271 148.365 80.7271Z" fill="#7F90AF"/>
<path d="M154.91 128.727C141.662 128.727 130.91 139.479 130.91 152.727C130.91 165.975 141.662 176.727 154.91 176.727C168.158 176.727 178.91 165.975 178.91 152.727C178.91 139.479 168.158 128.727 154.91 128.727Z" fill="#EE9800"/>
<path d="M154.908 159.272C153.704 159.272 152.727 160.25 152.727 161.454C152.727 162.659 153.704 163.636 154.908 163.636C156.113 163.636 157.09 162.659 157.09 161.454C157.09 160.25 156.113 159.272 154.908 159.272Z" fill="white"/>
<path fill-rule="evenodd" clip-rule="evenodd" d="M154.91 140.182C155.814 140.182 156.546 140.914 156.546 141.818L156.546 154.909C156.546 155.813 155.814 156.545 154.91 156.545C154.006 156.545 153.273 155.813 153.273 154.909L153.273 141.818C153.273 140.914 154.006 140.182 154.91 140.182Z" fill="white"/>
</svg>
