<svg width="72" height="72" viewBox="0 0 72 72" fill="none" xmlns="http://www.w3.org/2000/svg">
<path d="M62.1818 35.9999C62.1818 50.4598 50.4598 62.1818 36 62.1818C21.5402 62.1818 9.81818 50.4598 9.81818 35.9999C9.81818 21.5401 21.5402 9.81812 36 9.81812C50.4598 9.81812 62.1818 21.5401 62.1818 35.9999Z" fill="#D0EFFC"/>
<path d="M29.8636 25.7726L25.7727 27.818L25.3636 23.7271L26.1818 20.0453L29.8636 15.9544L35.5909 13.9089L39.6818 14.318L43.3636 16.3635L45.8182 20.4544L46.6364 24.1362L46.2273 25.7726L43.3636 24.1362L40.0909 22.0908L38.0455 19.2271H36.8182L32.3182 24.1362L29.8636 25.7726Z" fill="#A2DBFA"/>
<path d="M25.3636 42.1363L25.7727 30.2727L29.0455 34.7727L31.0909 36.8182L30.6818 39.2727L30.2727 42.1363L29.0455 43.3636L27.8182 42.1363H25.3636Z" fill="#A2DBFA"/>
<path d="M44.5909 33.1363L46.2272 30.2727L46.6363 37.6363L46.2272 42.5454H45H43.3636L42.5454 43.3636L41.7272 40.5L40.9091 37.6363L41.7272 36.4091L44.5909 33.1363Z" fill="#A2DBFA"/>
<path d="M18 58.9091V47.606C18 47.3138 18.0311 47.0195 18.1434 46.7498C18.9871 44.7245 21.7739 43.1915 24.5455 42.1773C25.2364 41.9245 25.9264 41.7039 26.5851 41.516C28.0623 41.0946 29.568 41.9171 30.1646 43.3326L35.9999 57.1765L41.8358 43.3325C42.4324 41.9171 43.9381 41.0946 45.4152 41.516C46.0739 41.7039 46.7639 41.9245 47.4548 42.1773C50.2263 43.1915 53.0129 44.7245 53.8566 46.7498C53.9689 47.0195 54 47.3138 54 47.606V58.9091C54 60.7166 52.5347 62.1818 50.7273 62.1818H35.9999H21.2727C19.4652 62.1818 18 60.7166 18 58.9091Z" fill="white"/>
<path fill-rule="evenodd" clip-rule="evenodd" d="M35.9999 58.8128C36.6581 58.8128 37.2521 58.4185 37.5078 57.8121L43.3437 43.9681C43.6555 43.2283 44.3721 42.92 44.9663 43.0896C45.5907 43.2677 46.2426 43.4762 46.8925 43.714C48.2073 44.1951 49.4683 44.7797 50.473 45.4473C51.5014 46.1306 52.1018 46.7956 52.3447 47.3758C52.3457 47.3794 52.349 47.3916 52.3526 47.4149C52.3586 47.4549 52.3636 47.5155 52.3636 47.606V58.9091C52.3636 59.8128 51.631 60.5454 50.7273 60.5454H21.2727C20.369 60.5454 19.6364 59.8128 19.6364 58.9091V47.606C19.6364 47.5155 19.6414 47.4549 19.6474 47.4149C19.651 47.3916 19.6543 47.3794 19.6553 47.3758C19.8982 46.7956 20.4986 46.1307 21.5271 45.4473C22.5318 44.7797 23.7929 44.1951 25.1078 43.714C25.7577 43.4762 26.4096 43.2677 27.034 43.0896C27.6283 42.9201 28.3449 43.2284 28.6567 43.9682L34.492 57.812C34.7477 58.4185 35.3418 58.8128 35.9999 58.8128ZM41.8358 43.3325C42.4324 41.9171 43.9381 41.0946 45.4152 41.516C46.0739 41.7039 46.7639 41.9245 47.4548 42.1773C50.2263 43.1915 53.0129 44.7245 53.8566 46.7498C53.9689 47.0195 54 47.3138 54 47.606V58.9091C54 60.7166 52.5347 62.1818 50.7273 62.1818H21.2727C19.4652 62.1818 18 60.7166 18 58.9091V47.606C18 47.3138 18.0311 47.0195 18.1434 46.7498C18.9871 44.7245 21.7739 43.1915 24.5455 42.1773C25.2364 41.9245 25.9264 41.7039 26.5851 41.516C28.0623 41.0946 29.568 41.9171 30.1646 43.3326L35.9999 57.1765L41.8358 43.3325Z" fill="#1976D2"/>
<path d="M31.0909 38.4545V36.8181L27.8182 33.1363L26.1818 29.8636L25.7727 27.8181L27.8182 26.9999L31.9091 24.5454L35.1818 21.2727L37.2272 18.8181L38.8636 20.8636L40.9091 22.909L44.5909 24.9545L46.6363 25.7727L46.2272 28.6363L45.4091 31.4999L43.7727 34.3636L40.9091 37.6363V39.6818L41.7272 41.7272L42.5454 43.7727L36 57.6818L30.6818 46.6363L29.4545 43.3636L29.8636 42.5454L30.6818 40.4999L31.0909 38.4545Z" fill="white"/>
<path d="M47.1432 46.457L47.4545 43.3635C47.0454 42.9544 45.409 42.1362 44.1818 42.1362C42.9545 42.1362 42.1363 44.5908 41.7272 45.409L36 58.0908L30.2727 45.409C29.8636 44.5908 29.0454 42.1362 27.8182 42.1362C26.5909 42.1362 24.9545 42.9544 24.5454 43.3635L24.8567 46.457C25.0097 47.9769 26.1937 49.1888 27.7096 49.3771L30.8455 49.7667L30.4697 53.0345C30.3464 54.1063 30.7582 55.169 31.5723 55.877L36 59.7271L40.4277 55.877C41.2418 55.169 41.6536 54.1063 41.5303 53.0345L41.1545 49.7667L44.2904 49.3771C45.8063 49.1888 46.9903 47.9769 47.1432 46.457Z" fill="#A2DBFA"/>
<path fill-rule="evenodd" clip-rule="evenodd" d="M29.5333 45.7596L30.9784 48.9594C30.9678 48.9577 30.9571 48.9561 30.9463 48.9548L27.8104 48.5652C26.6735 48.424 25.7855 47.5151 25.6708 46.3752L25.406 43.7434C25.5926 43.6304 25.8599 43.4892 26.1897 43.3518C26.7583 43.1149 27.3592 42.9545 27.8182 42.9545C27.8359 42.9545 27.9253 42.9614 28.0984 43.1258C28.2708 43.2896 28.4546 43.544 28.6419 43.8718C28.8256 44.1934 28.9914 44.5469 29.1415 44.8848C29.1827 44.9773 29.2244 45.073 29.2657 45.1677C29.3615 45.3871 29.455 45.6013 29.5333 45.7596ZM31.6028 50.3422L34.9323 57.7145L32.1092 55.2596C31.4989 54.7289 31.19 53.9323 31.2825 53.128L31.6028 50.3422ZM37.0677 57.7145L40.3971 50.3422L40.7175 53.128C40.81 53.9323 40.5011 54.7289 39.8908 55.2596L37.0677 57.7145ZM41.0216 48.9594C41.0322 48.9577 41.0429 48.9561 41.0536 48.9548L44.1895 48.5652C45.3265 48.424 46.2145 47.5151 46.3292 46.3752L46.594 43.7434C46.4073 43.6304 46.1401 43.4892 45.8103 43.3518C45.2417 43.1149 44.6408 42.9545 44.1818 42.9545C44.1641 42.9545 44.0746 42.9614 43.9016 43.1258C43.7291 43.2896 43.5454 43.544 43.3581 43.8718C43.1743 44.1934 43.0086 44.5469 42.8584 44.8848C42.8173 44.9773 42.7755 45.073 42.7342 45.1677C42.6384 45.3871 42.5449 45.6013 42.4666 45.7596L41.0216 48.9594ZM29.2254 41.9394C28.8871 41.618 28.4141 41.3181 27.8182 41.3181C27.0499 41.3181 26.219 41.5668 25.5603 41.8413C24.9216 42.1074 24.2881 42.4638 23.9669 42.785C23.7932 42.9587 23.7068 43.2011 23.7314 43.4455L24.0426 46.539C24.2338 48.4388 25.7138 49.9537 27.6087 50.1891L29.94 50.4787L29.6568 52.941C29.5028 54.2804 30.0174 55.6092 31.0354 56.4944L35.4631 60.3446C35.771 60.6123 36.229 60.6123 36.5369 60.3446L40.9645 56.4944C41.9825 55.6092 42.4972 54.2804 42.3431 52.9411L42.06 50.4787L44.3913 50.1891C46.2861 49.9537 47.7661 48.4388 47.9573 46.539L48.2686 43.4455C48.2932 43.2011 48.2067 42.9587 48.0331 42.785C47.7118 42.4638 47.0783 42.1074 46.4396 41.8413C45.7809 41.5668 44.95 41.3181 44.1818 41.3181C43.5858 41.3181 43.1128 41.618 42.7745 41.9394C42.4356 42.2614 42.1591 42.6717 41.9373 43.0599C41.712 43.4542 41.5197 43.8677 41.3631 44.2202C41.306 44.3486 41.2558 44.4638 41.2106 44.5673C41.1235 44.7671 41.0556 44.9227 40.9954 45.0431C40.9906 45.0527 40.986 45.0625 40.9816 45.0723L36 56.103L31.0184 45.0723C31.014 45.0625 31.0093 45.0527 31.0045 45.0431C30.9443 44.9227 30.8765 44.7671 30.7893 44.5673C30.7442 44.4639 30.6939 44.3486 30.6369 44.2202C30.4802 43.8677 30.288 43.4542 30.0626 43.0599C29.8408 42.6717 29.5644 42.2614 29.2254 41.9394Z" fill="#1976D2"/>
<path fill-rule="evenodd" clip-rule="evenodd" d="M47.4545 54.8181C47.9064 54.8181 48.2727 55.1844 48.2727 55.6363L48.2727 61.3636C48.2727 61.8154 47.9064 62.1818 47.4545 62.1818C47.0027 62.1818 46.6364 61.8154 46.6364 61.3636L46.6364 55.6363C46.6364 55.1844 47.0027 54.8181 47.4545 54.8181Z" fill="#1976D2"/>
<path fill-rule="evenodd" clip-rule="evenodd" d="M24.5455 54.8181C24.9973 54.8181 25.3637 55.1844 25.3637 55.6363V61.3636C25.3637 61.8154 24.9973 62.1818 24.5455 62.1818C24.0936 62.1818 23.7273 61.8154 23.7273 61.3636V55.6363C23.7273 55.1844 24.0936 54.8181 24.5455 54.8181Z" fill="#1976D2"/>
<path fill-rule="evenodd" clip-rule="evenodd" d="M31.3684 41.2549C31.0479 42.4207 30.5912 43.384 30.0331 43.9421L28.876 42.785C29.136 42.525 29.4975 41.8875 29.7906 40.8211C30.0757 39.7841 30.2727 38.426 30.2727 36.8181H31.9091C31.9091 38.5541 31.697 40.0598 31.3684 41.2549Z" fill="#1976D2"/>
<path fill-rule="evenodd" clip-rule="evenodd" d="M41.6334 43.5807C41.7459 43.7381 41.8992 43.9194 42.0995 44.0496L42.9913 42.6776C43.0106 42.6901 43.0199 42.6986 43.02 42.6985C43.0202 42.6983 43.0011 42.68 42.9651 42.6297C42.9118 42.5551 42.8437 42.4412 42.7659 42.2826C42.6105 41.9662 42.4412 41.5221 42.2845 40.9716C41.9717 39.8724 41.7272 38.4109 41.7272 36.8181H40.0909C40.0909 38.5693 40.3584 40.1815 40.7106 41.4195C40.8865 42.0376 41.088 42.578 41.2969 43.0036C41.4012 43.2161 41.5135 43.4127 41.6334 43.5807Z" fill="#1976D2"/>
<path fill-rule="evenodd" clip-rule="evenodd" d="M36.3322 39.2715C29.6517 39.1696 24.5455 32.4384 24.5455 24.5454H26.1818C26.1818 31.9213 30.9124 37.5838 36.4094 37.636C39.1395 37.6103 41.4567 36.2233 43.1233 33.9033C44.8141 31.5496 45.8182 28.2476 45.8182 24.5454H47.4546C47.4546 28.525 46.3779 32.1775 44.4523 34.858C42.5476 37.5093 39.7965 39.2201 36.486 39.2715V39.2727C36.4602 39.2727 36.4345 39.2726 36.4088 39.2724C36.3833 39.2726 36.3578 39.2727 36.3322 39.2727V39.2715Z" fill="#1976D2"/>
<path fill-rule="evenodd" clip-rule="evenodd" d="M40.4552 23.3936C38.6838 21.8972 37.3477 20.1927 36.6066 18.9695L38.0062 18.1216C38.661 19.2024 39.8834 20.7686 41.5112 22.1435C43.1406 23.52 45.1235 24.6608 47.3023 24.9844L47.0619 26.603C44.4819 26.2198 42.2249 24.8885 40.4552 23.3936Z" fill="#1976D2"/>
<path fill-rule="evenodd" clip-rule="evenodd" d="M25.1619 27.0404C32.427 25.1921 36.7714 18.5029 38.6124 13.8428L40.1343 14.444C38.2198 19.29 33.5893 26.5849 25.5654 28.6262L25.1619 27.0404Z" fill="#1976D2"/>
<path fill-rule="evenodd" clip-rule="evenodd" d="M36 11.4545C29.1609 11.4545 22.9091 17.0383 22.9091 23.7952H21.2727C21.2727 16.0172 28.3791 9.81812 36 9.81812C43.6208 9.81812 50.7272 16.0172 50.7272 23.7952H49.0909C49.0909 17.0383 42.839 11.4545 36 11.4545Z" fill="#1976D2"/>
<path d="M18 27.818C18 30.5292 20.1979 32.7271 22.9091 32.7271V22.9089C20.1979 22.9089 18 25.1068 18 27.818Z" fill="#D0EFFC"/>
<path fill-rule="evenodd" clip-rule="evenodd" d="M19.6364 27.818C19.6364 29.0294 20.2945 30.0871 21.2727 30.6529V24.9831C20.2945 25.549 19.6364 26.6067 19.6364 27.818ZM21.2727 23.1883C19.366 23.8622 18 25.6806 18 27.818C18 29.9555 19.366 31.7739 21.2727 32.4478C21.7845 32.6287 22.3353 32.7271 22.9091 32.7271V22.9089C22.3353 22.9089 21.7845 23.0074 21.2727 23.1883Z" fill="#1976D2"/>
<path d="M54 27.818C54 30.5292 51.8021 32.7271 49.0909 32.7271V22.9089C51.8021 22.9089 54 25.1068 54 27.818Z" fill="#D0EFFC"/>
<path fill-rule="evenodd" clip-rule="evenodd" d="M52.3636 27.818C52.3636 29.0294 51.7055 30.0871 50.7273 30.6529V24.9831C51.7055 25.549 52.3636 26.6067 52.3636 27.818ZM50.7273 23.1883C52.634 23.8622 54 25.6806 54 27.818C54 29.9555 52.634 31.7739 50.7273 32.4478C50.2155 32.6287 49.6647 32.7271 49.0909 32.7271V22.9089C49.6647 22.9089 50.2155 23.0074 50.7273 23.1883Z" fill="#1976D2"/>
<path d="M37.6364 33.5453C37.6364 34.449 36.9037 35.1817 36 35.1817C35.0963 35.1817 34.3636 34.449 34.3636 33.5453C34.3636 32.6416 35.0963 31.9089 36 31.9089C36.9037 31.9089 37.6364 32.6416 37.6364 33.5453Z" fill="#1976D2"/>
<path fill-rule="evenodd" clip-rule="evenodd" d="M36 14.7272C30.583 14.7272 26.1818 19.1508 26.1818 24.6197V42.5454H24.5455V24.6197C24.5455 18.2579 29.6685 13.0908 36 13.0908C42.3316 13.0908 47.4546 18.2579 47.4546 24.6197V42.5454H45.8182V24.6197C45.8182 19.1508 41.4171 14.7272 36 14.7272Z" fill="#1976D2"/>
<path fill-rule="evenodd" clip-rule="evenodd" d="M41.7273 35.1818C45.7941 35.1818 49.0909 31.8849 49.0909 27.8181H50.7273C50.7273 32.7887 46.6978 36.8181 41.7273 36.8181C39.2747 36.8181 37.0498 35.836 35.4272 34.2454L36.5728 33.0768C37.9018 34.3797 39.7201 35.1818 41.7273 35.1818Z" fill="#1976D2"/>
</svg>
