<svg width="72" height="72" viewBox="0 0 72 72" fill="none" xmlns="http://www.w3.org/2000/svg">
<path d="M62.1818 36.0002C62.1818 50.46 50.4598 62.182 35.9999 62.182C21.5401 62.182 9.81812 50.46 9.81812 36.0002C9.81812 21.5404 21.5401 9.81836 35.9999 9.81836C50.4598 9.81836 62.1818 21.5404 62.1818 36.0002Z" fill="#D0EFFC"/>
<path d="M18.8181 9.81836H13.0908C11.2834 9.81836 9.81812 11.2836 9.81812 13.0911V58.9093C9.81812 60.7168 11.2834 62.182 13.0908 62.182H39.2412L54.8181 42.8302V18.5456L44.9999 9.81836H18.8181Z" fill="white"/>
<path fill-rule="evenodd" clip-rule="evenodd" d="M13.0908 11.4547C12.1871 11.4547 11.4545 12.1873 11.4545 13.0911V58.9093C11.4545 59.813 12.1871 60.5456 13.0908 60.5456H38.4577L53.1818 42.2535V19.2805L44.3778 11.4547H13.0908ZM44.9999 9.81836L54.8181 18.5456V42.8302L39.2412 62.182H13.0908C11.2834 62.182 9.81812 60.7168 9.81812 58.9093V13.0911C9.81812 11.2836 11.2834 9.81836 13.0908 9.81836H44.9999Z" fill="#1976D2"/>
<path fill-rule="evenodd" clip-rule="evenodd" d="M18 18.8182C18 18.3663 18.3663 18 18.8182 18H36C36.4519 18 36.8182 18.3663 36.8182 18.8182C36.8182 19.2701 36.4519 19.6364 36 19.6364H18.8182C18.3663 19.6364 18 19.2701 18 18.8182Z" fill="#1976D2"/>
<path fill-rule="evenodd" clip-rule="evenodd" d="M18 44.1815C18 43.7296 18.3663 43.3633 18.8182 43.3633H27.8182C28.2701 43.3633 28.6364 43.7296 28.6364 44.1815C28.6364 44.6333 28.2701 44.9996 27.8182 44.9996H18.8182C18.3663 44.9996 18 44.6333 18 44.1815Z" fill="#1976D2"/>
<path fill-rule="evenodd" clip-rule="evenodd" d="M27 44.1815C27 43.7296 27.3663 43.3633 27.8182 43.3633H36.8182C37.2701 43.3633 37.6364 43.7296 37.6364 44.1815C37.6364 44.6333 37.2701 44.9996 36.8182 44.9996H27.8182C27.3663 44.9996 27 44.6333 27 44.1815Z" fill="#1976D2"/>
<path fill-rule="evenodd" clip-rule="evenodd" d="M18 53.1815C18 52.7296 18.3663 52.3633 18.8182 52.3633H27.8182C28.2701 52.3633 28.6364 52.7296 28.6364 53.1815C28.6364 53.6333 28.2701 53.9996 27.8182 53.9996H18.8182C18.3663 53.9996 18 53.6333 18 53.1815Z" fill="#1976D2"/>
<path fill-rule="evenodd" clip-rule="evenodd" d="M20.5713 53.1815C20.5713 52.7296 20.9376 52.3633 21.3895 52.3633H30.3895C30.8413 52.3633 31.2077 52.7296 31.2077 53.1815C31.2077 53.6333 30.8413 53.9996 30.3895 53.9996H21.3895C20.9376 53.9996 20.5713 53.6333 20.5713 53.1815Z" fill="#1976D2"/>
<path fill-rule="evenodd" clip-rule="evenodd" d="M18 27.8182C18 27.3663 18.3663 27 18.8182 27H44.1818C44.6337 27 45 27.3663 45 27.8182C45 28.2701 44.6337 28.6364 44.1818 28.6364H18.8182C18.3663 28.6364 18 28.2701 18 27.8182Z" fill="#1976D2"/>
<path fill-rule="evenodd" clip-rule="evenodd" d="M18 35.9998C18 35.548 18.3663 35.1816 18.8182 35.1816H44.1818C44.6337 35.1816 45 35.548 45 35.9998C45 36.4517 44.6337 36.818 44.1818 36.818H18.8182C18.3663 36.818 18 36.4517 18 35.9998Z" fill="#1976D2"/>
<path d="M45 18.8187V11.4551L53.1818 18.8187H45Z" fill="#A2DBFA"/>
<path fill-rule="evenodd" clip-rule="evenodd" d="M44.3342 9.95994C44.9245 9.69703 45.6143 9.80616 46.0946 10.2385L54.2764 17.6021C54.7801 18.0553 54.9523 18.7721 54.7095 19.4046C54.4668 20.0372 53.8593 20.4548 53.1818 20.4548H45C44.0962 20.4548 43.3636 19.7221 43.3636 18.8184V11.4548C43.3636 10.8085 43.7439 10.2228 44.3342 9.95994ZM45 18.8184V11.4548L53.1818 18.8184H45Z" fill="#1976D2"/>
<path d="M52.2397 36.9043L56.2378 40.0677L46.7476 52.0617L42.7496 48.8983L52.2397 36.9043Z" fill="white"/>
<path fill-rule="evenodd" clip-rule="evenodd" d="M51.7356 36.5061C51.9559 36.2277 52.3602 36.1805 52.6387 36.4008L56.6367 39.5642C56.9151 39.7845 56.9622 40.1888 56.7419 40.4673L47.2517 52.4613C47.0314 52.7397 46.6271 52.7868 46.3487 52.5665L42.3507 49.4031C42.0723 49.1828 42.0252 48.7785 42.2455 48.5001L51.7356 36.5061ZM52.345 37.808L43.6526 48.7938L46.6423 51.1594L55.3347 40.1736L52.345 37.808Z" fill="#1976D2"/>
<path fill-rule="evenodd" clip-rule="evenodd" d="M51.8409 37.4087C51.2677 36.9551 50.5379 36.7479 49.8119 36.8325C49.0859 36.9171 48.4232 37.2866 47.9697 37.8598L40.5884 47.1885C40.3681 47.4669 39.9638 47.5141 39.6854 47.2938C39.407 47.0734 39.3599 46.6692 39.5802 46.3907L46.9614 37.062C47.6265 36.2215 48.5983 35.6795 49.663 35.5554C50.7277 35.4313 51.7981 35.7353 52.6387 36.4004C52.9171 36.6207 52.9643 37.025 52.7439 37.3034C52.5236 37.5818 52.1193 37.629 51.8409 37.4087Z" fill="#1976D2"/>
<path d="M57.8196 38.0686C58.2391 37.5385 58.4308 36.8634 58.3526 36.1919C58.2743 35.5204 57.9325 34.9074 57.4023 34.4879C56.8722 34.0685 56.1971 33.8768 55.5255 33.955C54.854 34.0333 54.2411 34.3751 53.8216 34.9053L52.2399 36.9043L56.2379 40.0676L57.8196 38.0686Z" fill="#A2DBFA"/>
<path fill-rule="evenodd" clip-rule="evenodd" d="M55.4509 33.3172C56.2918 33.2192 57.1371 33.4592 57.801 33.9845C58.4649 34.5098 58.8929 35.2773 58.9909 36.1181C59.0889 36.959 58.8488 37.8043 58.3235 38.4682L56.7418 40.4672C56.5215 40.7456 56.1172 40.7928 55.8388 40.5725L51.8408 37.4091C51.5624 37.1888 51.5153 36.7845 51.7356 36.506L53.3173 34.507C53.8425 33.8432 54.61 33.4152 55.4509 33.3172ZM57.0032 34.9928C56.6067 34.6791 56.1019 34.5357 55.5997 34.5942C55.0976 34.6528 54.6392 34.9084 54.3255 35.3048L53.1427 36.7997L56.1325 39.1653L57.3153 37.6704C57.629 37.274 57.7723 36.7691 57.7138 36.267C57.6553 35.7648 57.3997 35.3065 57.0032 34.9928Z" fill="#1976D2"/>
<path d="M42.7493 48.8965L46.7473 52.0599L39.366 61.3886L35.368 58.2252L42.7493 48.8965Z" fill="#A2DBFA"/>
<path fill-rule="evenodd" clip-rule="evenodd" d="M42.2452 48.4983C42.4655 48.2198 42.8698 48.1727 43.1482 48.393L47.1462 51.5564C47.4246 51.7767 47.4717 52.181 47.2514 52.4595L39.8702 61.7881C39.6499 62.0666 39.2456 62.1137 38.9671 61.8934L34.9691 58.73C34.6907 58.5097 34.6436 58.1054 34.8639 57.827L42.2452 48.4983ZM42.8545 49.8002L36.2711 58.1206L39.2608 60.4862L45.8443 52.1658L42.8545 49.8002Z" fill="#1976D2"/>
<path d="M34.9729 58.7598C34.0233 60.5798 33.1697 62.4484 32.4158 64.3578C32.3205 64.5838 32.302 64.8348 32.363 65.0723C32.4239 65.3098 32.5611 65.5208 32.7534 65.673C32.9457 65.8251 33.1826 65.9101 33.4278 65.9148C33.6729 65.9195 33.9129 65.8438 34.1109 65.6991C35.7958 64.5263 37.418 63.2659 38.9709 61.9232" fill="#D0EFFC"/>
<path fill-rule="evenodd" clip-rule="evenodd" d="M35.2703 58.1907C35.5851 58.3549 35.7071 58.7432 35.5429 59.058C34.6036 60.8581 33.7594 62.7062 33.0137 64.5948L33.0084 64.6084L33.0082 64.6083C32.9676 64.7048 32.9596 64.8119 32.9857 64.9133C33.0117 65.0147 33.0702 65.1047 33.1523 65.1697C33.2344 65.2346 33.3355 65.2709 33.4402 65.2729C33.5448 65.2749 33.6472 65.2426 33.7318 65.1808L33.7436 65.1722L33.7437 65.1723C35.4101 64.0123 37.0146 62.7658 38.5505 61.4377C38.819 61.2055 39.225 61.235 39.4572 61.5035C39.6894 61.7721 39.66 62.1781 39.3914 62.4103C37.8232 63.7663 36.185 65.0392 34.4836 66.2238C34.1733 66.4483 33.7984 66.5658 33.4154 66.5584C33.0297 66.551 32.6571 66.4173 32.3545 66.178C32.052 65.9386 31.8362 65.6066 31.7403 65.233C31.6451 64.8619 31.6732 64.47 31.8203 64.1165C32.5819 62.1883 33.444 60.3013 34.403 58.4632C34.5672 58.1485 34.9555 58.0264 35.2703 58.1907Z" fill="#1976D2"/>
</svg>
