<svg width="72" height="72" viewBox="0 0 72 72" fill="none" xmlns="http://www.w3.org/2000/svg">
<path d="M62.1818 35.9999C62.1818 50.4598 50.4598 62.1818 36 62.1818C21.5402 62.1818 9.81818 50.4598 9.81818 35.9999C9.81818 21.5401 21.5402 9.81812 36 9.81812C50.4598 9.81812 62.1818 21.5401 62.1818 35.9999Z" fill="#D0EFFC"/>
<path d="M10.9144 15.2038C10.9144 13.6508 12.1733 12.3918 13.7264 12.3918H56.8438C58.3968 12.3918 59.6558 13.6508 59.6558 15.2038V44.2612C59.6558 45.8142 58.3968 47.0732 56.8438 47.0732H13.7264C12.1733 47.0732 10.9144 45.8142 10.9144 44.2612V15.2038Z" fill="white"/>
<path fill-rule="evenodd" clip-rule="evenodd" d="M13.2354 13.3293C12.8673 13.3293 12.5149 13.475 12.2557 13.7332C11.9966 13.9913 11.8517 14.3406 11.8517 14.704V44.7612C11.8517 45.1246 11.9966 45.4739 12.2557 45.732C12.5149 45.9902 12.8673 46.136 13.2354 46.136H39.7486C40.2663 46.136 40.6859 46.5556 40.6859 47.0733C40.6859 47.591 40.2663 48.0106 39.7486 48.0106H13.2354C12.3724 48.0106 11.544 47.6692 10.9327 47.0602C10.3212 46.4511 9.97705 45.6242 9.97705 44.7612V14.704C9.97705 13.841 10.3212 13.0142 10.9327 12.405C11.544 11.7961 12.3724 11.4546 13.2354 11.4546H57.3348C58.1978 11.4546 59.0262 11.7961 59.6375 12.405C60.2489 13.0142 60.5931 13.841 60.5931 14.704V44.8237C60.5931 45.3414 60.1735 45.761 59.6558 45.761C59.1381 45.761 58.7184 45.3414 58.7184 44.8237V14.704C58.7184 14.3406 58.5736 13.9913 58.3145 13.7332C58.0552 13.475 57.7029 13.3293 57.3348 13.3293H13.2354Z" fill="#1976D2"/>
<path d="M31.1632 47.6985L30.2258 54.7597L31.1632 47.6985Z" fill="#D0EFFC"/>
<path fill-rule="evenodd" clip-rule="evenodd" d="M31.2865 46.7692C31.7997 46.8374 32.1605 47.3086 32.0924 47.8218L31.155 54.883C31.0869 55.3962 30.6157 55.757 30.1025 55.6888C29.5893 55.6207 29.2285 55.1495 29.2966 54.6363L30.234 47.5751C30.3021 47.0619 30.7733 46.7011 31.2865 46.7692Z" fill="#1976D2"/>
<path fill-rule="evenodd" clip-rule="evenodd" d="M22.912 55.5094C22.912 54.9917 23.3317 54.572 23.8494 54.572H51.8444C52.3621 54.572 52.7818 54.9917 52.7818 55.5094C52.7818 56.027 52.3621 56.4467 51.8444 56.4467H23.8494C23.3317 56.4467 22.912 56.027 22.912 55.5094Z" fill="#1976D2"/>
<path d="M21.2251 24.5773C21.2251 23.542 22.0644 22.7026 23.0998 22.7026H47.4705C48.5058 22.7026 49.3451 23.542 49.3451 24.5773V35.8253C49.3451 36.8607 48.5058 37.7 47.4705 37.7H23.0998C22.0644 37.7 21.2251 36.8607 21.2251 35.8253V24.5773Z" fill="#D0EFFC"/>
<path d="M11.8517 22.7026H16.5384C17.5738 22.7026 18.4131 23.542 18.4131 24.5773V35.8253C18.4131 36.8607 17.5738 37.7 16.5384 37.7H11.8517V22.7026Z" fill="#D0EFFC"/>
<path d="M58.7184 22.7026H54.0318C52.9964 22.7026 52.1571 23.542 52.1571 24.5773V35.8253C52.1571 36.8607 52.9964 37.7 54.0318 37.7H58.7184V22.7026Z" fill="#D0EFFC"/>
<path fill-rule="evenodd" clip-rule="evenodd" d="M24.0371 26.452C24.0371 25.9343 24.4568 25.5146 24.9744 25.5146H45.5958C46.1135 25.5146 46.5331 25.9343 46.5331 26.452C46.5331 26.9697 46.1135 27.3893 45.5958 27.3893H24.9744C24.4568 27.3893 24.0371 26.9697 24.0371 26.452Z" fill="#1976D2"/>
<path fill-rule="evenodd" clip-rule="evenodd" d="M24.0371 30.2013C24.0371 29.6836 24.4568 29.2639 24.9744 29.2639H45.5958C46.1135 29.2639 46.5331 29.6836 46.5331 30.2013C46.5331 30.7189 46.1135 31.1386 45.5958 31.1386H24.9744C24.4568 31.1386 24.0371 30.7189 24.0371 30.2013Z" fill="#1976D2"/>
<path fill-rule="evenodd" clip-rule="evenodd" d="M24.0371 33.9508C24.0371 33.4331 24.4568 33.0134 24.9744 33.0134H34.3478C34.8655 33.0134 35.2851 33.4331 35.2851 33.9508C35.2851 34.4684 34.8655 34.8881 34.3478 34.8881H24.9744C24.4568 34.8881 24.0371 34.4684 24.0371 33.9508Z" fill="#1976D2"/>
<path d="M46.0957 58.7901C45.4376 58.7901 44.8276 58.4449 44.4887 57.8807L37.8268 46.7891C34.9648 42.509 42.0409 41.067 45.294 48.2011V29.6967C45.294 29.0848 45.5422 28.4979 45.9839 28.0652C46.4257 27.6325 47.0249 27.3894 47.6496 27.3894C48.2743 27.3894 48.8735 27.6325 49.3152 28.0652C49.757 28.4979 50.0052 29.0848 50.0052 29.6967V40.6655L59.3498 43.3097C60.0919 43.5213 60.7232 44.003 61.1143 44.6559C61.5054 45.3089 61.6267 46.0836 61.4533 46.8214L59.4511 58.7901" fill="white"/>
<path fill-rule="evenodd" clip-rule="evenodd" d="M47.6495 28.3266C47.2672 28.3266 46.9043 28.4755 46.6398 28.7347C46.3759 28.9931 46.2313 29.3395 46.2313 29.6965V48.201C46.2313 48.642 45.9239 49.0233 45.4929 49.1169C45.062 49.2105 44.6241 48.9911 44.4411 48.5898C42.922 45.2585 40.6215 44.1492 39.2691 44.152C38.5788 44.1534 38.2683 44.4165 38.1675 44.6187C38.0673 44.8199 37.9855 45.3401 38.6059 46.2679C38.6143 46.2805 38.6225 46.2933 38.6303 46.3063L45.2921 57.3979C45.4616 57.68 45.7666 57.8526 46.0957 57.8526H58.6575L60.5288 46.6665C60.5321 46.6465 60.5361 46.6266 60.5408 46.6068C60.6581 46.1075 60.5766 45.5823 60.3101 45.1374C60.0434 44.6922 59.6096 44.3585 59.0934 44.2111C59.0931 44.211 59.0937 44.2112 59.0934 44.2111L49.7499 41.5673C49.3464 41.4531 49.0678 41.0847 49.0678 40.6654V29.6965C49.0678 29.3395 48.9232 28.9931 48.6593 28.7347C48.3947 28.4755 48.0319 28.3266 47.6495 28.3266ZM45.328 27.3954C45.9469 26.7891 46.7824 26.4519 47.6495 26.4519C48.5167 26.4519 49.3521 26.7891 49.9711 27.3954C50.5907 28.0023 50.9424 28.8297 50.9424 29.6965V39.9564L59.6068 42.4081C60.5744 42.6841 61.4029 43.3137 61.9183 44.1741C62.4285 45.0258 62.5916 46.0372 62.3731 47.0039L60.3755 58.9446C60.2999 59.3963 59.909 59.7273 59.451 59.7273H46.0957C45.1084 59.7273 44.1934 59.2095 43.6851 58.3631L37.0345 47.2903C36.234 46.084 35.9692 44.8269 36.4896 43.7826C37.0124 42.7336 38.1376 42.2796 39.2652 42.2773C40.8736 42.274 42.7699 43.1346 44.3566 44.9725V29.6965C44.3566 28.8297 44.7084 28.0023 45.328 27.3954Z" fill="#1976D2"/>
</svg>
