<svg width="72" height="72" viewBox="0 0 72 72" fill="none" xmlns="http://www.w3.org/2000/svg">
<path d="M58.9091 36C58.9091 49.5561 47.9197 60.5455 34.3636 60.5455C20.8076 60.5455 9.81818 49.5561 9.81818 36C9.81818 22.444 20.8076 11.4546 34.3636 11.4546C47.9197 11.4546 58.9091 22.444 58.9091 36Z" fill="#D0EFFC"/>
<path d="M62.1818 19.6363C62.1818 17.8288 60.7166 16.3635 58.9091 16.3635H27.8182C26.0107 16.3635 24.5455 17.8288 24.5455 19.6363V41.7272C24.5455 43.5346 26.0107 44.9999 27.8182 44.9999H58.9091C60.7166 44.9999 62.1818 43.5346 62.1818 41.7272V19.6363Z" fill="white"/>
<path fill-rule="evenodd" clip-rule="evenodd" d="M27.8182 17.9999H58.9091C59.8128 17.9999 60.5455 18.7325 60.5455 19.6363V41.7272C60.5455 42.6309 59.8128 43.3635 58.9091 43.3635H27.8182C26.9144 43.3635 26.1818 42.6309 26.1818 41.7272V19.6363C26.1818 18.7325 26.9144 17.9999 27.8182 17.9999ZM58.9091 16.3635C60.7166 16.3635 62.1818 17.8288 62.1818 19.6363V41.7272C62.1818 43.5346 60.7166 44.9999 58.9091 44.9999H27.8182C26.0107 44.9999 24.5455 43.5346 24.5455 41.7272V19.6363C24.5455 17.8288 26.0107 16.3635 27.8182 16.3635H58.9091Z" fill="#1976D2"/>
<path fill-rule="evenodd" clip-rule="evenodd" d="M58.4576 35.8306C58.4576 35.3788 58.0913 35.0125 57.6395 35.0125H49.8526C49.4008 35.0125 49.0344 35.3788 49.0344 35.8306C49.0344 36.2825 49.4008 36.6488 49.8526 36.6488H57.6395C58.0913 36.6488 58.4576 36.2825 58.4576 35.8306Z" fill="#1976D2"/>
<path d="M60.5455 24.5454H26.1818V30.2727H60.5455V24.5454Z" fill="#D0EFFC"/>
<path fill-rule="evenodd" clip-rule="evenodd" d="M61.3636 24.5452C61.3636 24.0934 60.9973 23.7271 60.5455 23.7271H25.3636C24.9118 23.7271 24.5455 24.0934 24.5455 24.5452C24.5455 24.9971 24.9118 25.3634 25.3636 25.3634H60.5455C60.9973 25.3634 61.3636 24.9971 61.3636 24.5452Z" fill="#1976D2"/>
<path fill-rule="evenodd" clip-rule="evenodd" d="M61.3636 30.2725C61.3636 29.8207 60.9973 29.4543 60.5455 29.4543H25.3636C24.9118 29.4543 24.5455 29.8207 24.5455 30.2725C24.5455 30.7244 24.9118 31.0907 25.3636 31.0907H60.5455C60.9973 31.0907 61.3636 30.7244 61.3636 30.2725Z" fill="#1976D2"/>
<path d="M47.4545 30.2727C47.4545 28.4652 45.9893 27 44.1818 27H13.0909C11.2834 27 9.81817 28.4652 9.81817 30.2727V52.3636C9.81817 54.1711 11.2834 55.6364 13.0909 55.6364H44.1818C45.9893 55.6364 47.4545 54.1711 47.4545 52.3636V30.2727Z" fill="white"/>
<path fill-rule="evenodd" clip-rule="evenodd" d="M13.0909 28.6364H44.1818C45.0855 28.6364 45.8182 29.369 45.8182 30.2727V52.3636C45.8182 53.2674 45.0855 54 44.1818 54H13.0909C12.1872 54 11.4545 53.2674 11.4545 52.3636V30.2727C11.4545 29.369 12.1872 28.6364 13.0909 28.6364ZM44.1818 27C45.9893 27 47.4545 28.4652 47.4545 30.2727V52.3636C47.4545 54.1711 45.9893 55.6364 44.1818 55.6364H13.0909C11.2834 55.6364 9.81817 54.1711 9.81817 52.3636V30.2727C9.81817 28.4652 11.2834 27 13.0909 27H44.1818Z" fill="#1976D2"/>
<path d="M14.7273 49.0907C14.7273 47.4632 15.3738 45.9024 16.5246 44.7516C17.6754 43.6009 19.2362 42.9543 20.8637 42.9543C22.4911 42.9543 24.0519 43.6009 25.2027 44.7516C26.3535 45.9024 27 47.4632 27 49.0907" fill="#A2DBFA"/>
<path fill-rule="evenodd" clip-rule="evenodd" d="M20.8637 43.7726C19.4532 43.7726 18.1005 44.3329 17.1031 45.3303C16.3007 46.1327 15.7812 47.1651 15.6088 48.2726H26.1186C25.9461 47.1651 25.4266 46.1327 24.6242 45.3303C23.6268 44.3329 22.2741 43.7726 20.8637 43.7726ZM15.9461 44.1732C17.2503 42.8689 19.0192 42.1362 20.8637 42.1362C22.7081 42.1362 24.477 42.8689 25.7813 44.1732C27.0855 45.4774 27.8182 47.2463 27.8182 49.0908C27.8182 49.3078 27.732 49.5159 27.5786 49.6693C27.4251 49.8228 27.217 49.909 27 49.909H14.7273C14.5103 49.909 14.3022 49.8228 14.1488 49.6693C13.9953 49.5159 13.9091 49.3078 13.9091 49.0908C13.9091 47.2463 14.6418 45.4774 15.9461 44.1732Z" fill="#1976D2"/>
<path d="M16.7728 36.818C16.7728 37.9029 17.2038 38.9435 17.971 39.7107C18.7382 40.4779 19.7787 40.9089 20.8637 40.9089C21.9487 40.9089 22.9892 40.4779 23.7564 39.7107C24.5236 38.9435 24.9546 37.9029 24.9546 36.818C24.9546 35.733 24.5236 34.6924 23.7564 33.9253C22.9892 33.1581 21.9487 32.7271 20.8637 32.7271C19.7787 32.7271 18.7382 33.1581 17.971 33.9253C17.2038 34.6924 16.7728 35.733 16.7728 36.818Z" fill="white"/>
<path fill-rule="evenodd" clip-rule="evenodd" d="M17.3924 33.3468C18.3131 32.4261 19.5617 31.9089 20.8637 31.9089C22.1657 31.9089 23.4143 32.4261 24.3349 33.3468C25.2556 34.2674 25.7728 35.5161 25.7728 36.818C25.7728 38.12 25.2556 39.3686 24.3349 40.2893C23.4143 41.2099 22.1657 41.7271 20.8637 41.7271C19.5617 41.7271 18.3131 41.2099 17.3924 40.2893C16.4718 39.3686 15.9546 38.12 15.9546 36.818C15.9546 35.5161 16.4718 34.2674 17.3924 33.3468ZM20.8637 33.5453C19.9957 33.5453 19.1633 33.8901 18.5495 34.5039C17.9358 35.1176 17.591 35.95 17.591 36.818C17.591 37.686 17.9358 38.5184 18.5495 39.1322C19.1633 39.746 19.9957 40.0908 20.8637 40.0908C21.7317 40.0908 22.5641 39.746 23.1779 39.1322C23.7916 38.5184 24.1364 37.686 24.1364 36.818C24.1364 35.95 23.7916 35.1176 23.1779 34.5039C22.5641 33.8901 21.7317 33.5453 20.8637 33.5453Z" fill="#1976D2"/>
<path fill-rule="evenodd" clip-rule="evenodd" d="M16.753 35.0333C16.9855 34.6459 17.4881 34.5202 17.8756 34.7527C17.9866 34.8194 18.1423 34.8923 18.348 34.9636C18.9766 35.1814 19.8821 35.3179 20.8637 35.3179C21.8453 35.3179 22.7508 35.1814 23.3794 34.9636C23.5851 34.8923 23.7407 34.8194 23.8518 34.7527C24.2393 34.5202 24.7419 34.6459 24.9743 35.0333C25.2068 35.4208 25.0812 35.9234 24.6938 36.1559C24.4637 36.2939 24.2001 36.4111 23.915 36.5098C23.0671 36.8035 21.9701 36.9543 20.8637 36.9543C19.7572 36.9543 18.6602 36.8035 17.8124 36.5098C17.5273 36.4111 17.2637 36.2939 17.0336 36.1559C16.6462 35.9234 16.5205 35.4208 16.753 35.0333Z" fill="#1976D2"/>
<path fill-rule="evenodd" clip-rule="evenodd" d="M30.2727 33.5452C30.2727 33.0934 30.639 32.7271 31.0909 32.7271H43.3636C43.8155 32.7271 44.1818 33.0934 44.1818 33.5452C44.1818 33.9971 43.8155 34.3634 43.3636 34.3634H31.0909C30.639 34.3634 30.2727 33.9971 30.2727 33.5452Z" fill="#1976D2"/>
<path fill-rule="evenodd" clip-rule="evenodd" d="M30.2727 38.4544C30.2727 38.0025 30.639 37.6362 31.0909 37.6362H43.3636C43.8155 37.6362 44.1818 38.0025 44.1818 38.4544C44.1818 38.9063 43.8155 39.2726 43.3636 39.2726H31.0909C30.639 39.2726 30.2727 38.9063 30.2727 38.4544Z" fill="#1976D2"/>
<path fill-rule="evenodd" clip-rule="evenodd" d="M30.2727 43.3636C30.2727 42.9117 30.639 42.5454 31.0909 42.5454H43.3636C43.8155 42.5454 44.1818 42.9117 44.1818 43.3636C44.1818 43.8155 43.8155 44.1818 43.3636 44.1818H31.0909C30.639 44.1818 30.2727 43.8155 30.2727 43.3636Z" fill="#1976D2"/>
<path fill-rule="evenodd" clip-rule="evenodd" d="M30.2727 48.2725C30.2727 47.8207 30.639 47.4543 31.0909 47.4543H40.9091C41.3609 47.4543 41.7273 47.8207 41.7273 48.2725C41.7273 48.7244 41.3609 49.0907 40.9091 49.0907H31.0909C30.639 49.0907 30.2727 48.7244 30.2727 48.2725Z" fill="#1976D2"/>
</svg>
