<svg width="56" height="56" viewBox="0 0 56 56" fill="none" xmlns="http://www.w3.org/2000/svg">
<path d="M48.364 28.0004C48.364 39.2469 39.2469 48.364 28.0004 48.364C16.7538 48.364 7.63672 39.2469 7.63672 28.0004C7.63672 16.7538 16.7538 7.63672 28.0004 7.63672C39.2469 7.63672 48.364 16.7538 48.364 28.0004Z" fill="#EBEFF5"/>
<path d="M7.63672 17.8189C7.63672 16.4131 8.77636 15.2734 10.1822 15.2734H46.4549C47.8607 15.2734 49.0004 16.4131 49.0004 17.8189V38.1825C49.0004 39.5883 47.8607 40.728 46.4549 40.728H10.1822C8.77636 40.728 7.63672 39.5883 7.63672 38.1825V17.8189Z" fill="white"/>
<path fill-rule="evenodd" clip-rule="evenodd" d="M46.4549 16.5462H10.1822C9.47927 16.5462 8.90945 17.116 8.90945 17.8189V38.1825C8.90945 38.8854 9.47927 39.4553 10.1822 39.4553H46.4549C47.1578 39.4553 47.7276 38.8854 47.7276 38.1825V17.8189C47.7276 17.116 47.1578 16.5462 46.4549 16.5462ZM10.1822 15.2734C8.77636 15.2734 7.63672 16.4131 7.63672 17.8189V38.1825C7.63672 39.5883 8.77636 40.728 10.1822 40.728H46.4549C47.8607 40.728 49.0004 39.5883 49.0004 38.1825V17.8189C49.0004 16.4131 47.8607 15.2734 46.4549 15.2734H10.1822Z" fill="#7F90AF"/>
<path d="M12.7275 35.6374C12.7275 34.1185 13.3309 32.6617 14.405 31.5876C15.4791 30.5136 16.9358 29.9102 18.4548 29.9102C19.9738 29.9102 21.4305 30.5136 22.5046 31.5876C23.5787 32.6617 24.1821 34.1185 24.1821 35.6374" fill="#DDE3ED"/>
<path fill-rule="evenodd" clip-rule="evenodd" d="M18.4545 30.5462C17.1043 30.5462 15.8094 31.0825 14.8546 32.0373C14.0512 32.8407 13.544 33.8852 13.4035 35.0007H23.5055C23.3649 33.8852 22.8578 32.8407 22.0543 32.0373C21.0995 31.0825 19.8046 30.5462 18.4545 30.5462ZM13.9547 31.1373C15.1481 29.9439 16.7667 29.2734 18.4545 29.2734C20.1422 29.2734 21.7608 29.9439 22.9542 31.1373C24.1476 32.3307 24.8181 33.9493 24.8181 35.6371C24.8181 35.8059 24.751 35.9677 24.6317 36.0871C24.5124 36.2064 24.3505 36.2734 24.1817 36.2734H12.7272C12.5584 36.2734 12.3965 36.2064 12.2772 36.0871C12.1579 35.9677 12.0908 35.8059 12.0908 35.6371C12.0908 33.9493 12.7613 32.3307 13.9547 31.1373Z" fill="#7F90AF"/>
<path d="M14.6367 24.1834C14.6367 25.1961 15.039 26.1672 15.755 26.8833C16.4711 27.5993 17.4423 28.0016 18.4549 28.0016C19.4675 28.0016 20.4387 27.5993 21.1548 26.8833C21.8708 26.1672 22.2731 25.1961 22.2731 24.1834C22.2731 23.1708 21.8708 22.1996 21.1548 21.4836C20.4387 20.7675 19.4675 20.3652 18.4549 20.3652C17.4423 20.3652 16.4711 20.7675 15.755 21.4836C15.039 22.1996 14.6367 23.1708 14.6367 24.1834Z" fill="white"/>
<path fill-rule="evenodd" clip-rule="evenodd" d="M15.3047 21.0332C16.1401 20.1978 17.2731 19.7285 18.4545 19.7285C19.636 19.7285 20.769 20.1978 21.6044 21.0332C22.4398 21.8686 22.9091 23.0016 22.9091 24.1831C22.9091 25.3645 22.4398 26.4975 21.6044 27.3329C20.769 28.1683 19.636 28.6376 18.4545 28.6376C17.2731 28.6376 16.1401 28.1683 15.3047 27.3329C14.4693 26.4975 14 25.3645 14 24.1831C14 23.0016 14.4693 21.8686 15.3047 21.0332ZM18.4545 21.0012C17.6107 21.0012 16.8014 21.3365 16.2047 21.9332C15.608 22.5299 15.2727 23.3392 15.2727 24.1831C15.2727 25.0269 15.608 25.8362 16.2047 26.4329C16.8014 27.0297 17.6107 27.3649 18.4545 27.3649C19.2984 27.3649 20.1077 27.0297 20.7044 26.4329C21.3011 25.8362 21.6364 25.0269 21.6364 24.1831C21.6364 23.3392 21.3011 22.5299 20.7044 21.9332C20.1077 21.3365 19.2984 21.0012 18.4545 21.0012Z" fill="#7F90AF"/>
<path fill-rule="evenodd" clip-rule="evenodd" d="M14.7265 22.5825C14.9074 22.2811 15.2983 22.1834 15.5996 22.3642C15.7125 22.432 15.8662 22.5035 16.0644 22.5722C16.6681 22.7813 17.5282 22.9099 18.454 22.9099C19.3799 22.9099 20.2399 22.7813 20.8437 22.5722C21.0418 22.5035 21.1955 22.432 21.3084 22.3642C21.6098 22.1834 22.0007 22.2811 22.1815 22.5825C22.3623 22.8838 22.2646 23.2747 21.9633 23.4556C21.7578 23.5788 21.5201 23.6848 21.2603 23.7748C20.486 24.043 19.477 24.1826 18.454 24.1826C17.431 24.1826 16.4221 24.043 15.6478 23.7748C15.3879 23.6848 15.1502 23.5788 14.9448 23.4556C14.6434 23.2747 14.5457 22.8838 14.7265 22.5825Z" fill="#7F90AF"/>
<path fill-rule="evenodd" clip-rule="evenodd" d="M28.6367 22.2731C28.6367 21.9216 28.9216 21.6367 29.2731 21.6367H43.9094C44.2609 21.6367 44.5458 21.9216 44.5458 22.2731C44.5458 22.6245 44.2609 22.9094 43.9094 22.9094H29.2731C28.9216 22.9094 28.6367 22.6245 28.6367 22.2731Z" fill="#7F90AF"/>
<path fill-rule="evenodd" clip-rule="evenodd" d="M28.6367 26.0914C28.6367 25.74 28.9216 25.4551 29.2731 25.4551H43.9094C44.2609 25.4551 44.5458 25.74 44.5458 26.0914C44.5458 26.4429 44.2609 26.7278 43.9094 26.7278H29.2731C28.9216 26.7278 28.6367 26.4429 28.6367 26.0914Z" fill="#7F90AF"/>
<path fill-rule="evenodd" clip-rule="evenodd" d="M28.6367 29.9098C28.6367 29.5583 28.9216 29.2734 29.2731 29.2734H43.9094C44.2609 29.2734 44.5458 29.5583 44.5458 29.9098C44.5458 30.2613 44.2609 30.5462 43.9094 30.5462H29.2731C28.9216 30.5462 28.6367 30.2613 28.6367 29.9098Z" fill="#7F90AF"/>
<path fill-rule="evenodd" clip-rule="evenodd" d="M28.6367 33.7282C28.6367 33.3767 28.9216 33.0918 29.2731 33.0918H41.364C41.7154 33.0918 42.0004 33.3767 42.0004 33.7282C42.0004 34.0796 41.7154 34.3645 41.364 34.3645H29.2731C28.9216 34.3645 28.6367 34.0796 28.6367 33.7282Z" fill="#7F90AF"/>
</svg>
