<svg width="89" height="88" viewBox="0 0 89 88" fill="none" xmlns="http://www.w3.org/2000/svg">
<rect width="88" height="88" transform="translate(0.5)" fill="white"/>
<path d="M76.5 44C76.5 61.6731 62.1731 76 44.5 76C26.8269 76 12.5 61.6731 12.5 44C12.5 26.3269 26.8269 12 44.5 12C62.1731 12 76.5 26.3269 76.5 44Z" fill="#EBEFF5"/>
<path d="M72.5924 49.549L46 42L40.4083 71.2489C39.937 73.7146 41.8269 76 44.3372 76H71.5001C73.7092 76 75.5001 74.2091 75.5001 72V53.3969C75.5001 51.6085 74.3129 50.0374 72.5924 49.549Z" fill="white"/>
<path fill-rule="evenodd" clip-rule="evenodd" d="M46 42L40.4083 71.2489C39.937 73.7146 41.8269 76 44.3372 76H71.5001C73.7092 76 75.5001 74.2091 75.5001 72V53.3969C75.5001 51.6085 74.3129 50.0374 72.5924 49.549L46 42ZM47.5544 44.5203L42.3728 71.6244C42.1371 72.8573 43.082 74 44.3372 74H71.5001C72.6046 74 73.5001 73.1046 73.5001 72V53.3969C73.5001 52.5027 72.9065 51.7171 72.0462 51.4729L47.5544 44.5203Z" fill="#7F90AF"/>
<path d="M12.5 17.1368C12.5 14.5302 14.953 12.62 17.4801 13.2587L44.4801 20.0824C46.2559 20.5312 47.5 22.1288 47.5 23.9605V76.0001H16.5C14.2909 76.0001 12.5 74.2092 12.5 72.0001V17.1368Z" fill="#F5F7FA"/>
<path fill-rule="evenodd" clip-rule="evenodd" d="M43.9901 22.0214L16.9901 15.1977C15.7265 14.8784 14.5 15.8335 14.5 17.1368V72.0001C14.5 73.1047 15.3954 74.0001 16.5 74.0001H45.5V23.9605C45.5 23.0446 44.878 22.2458 43.9901 22.0214ZM17.4801 13.2587C14.953 12.62 12.5 14.5302 12.5 17.1368V72.0001C12.5 74.2092 14.2909 76.0001 16.5 76.0001H47.5V23.9605C47.5 22.1288 46.2559 20.5312 44.4801 20.0824L17.4801 13.2587Z" fill="#7F90AF"/>
<path fill-rule="evenodd" clip-rule="evenodd" d="M19.5 30C19.5 29.4477 19.9477 29 20.5 29H26.5C27.0523 29 27.5 29.4477 27.5 30C27.5 30.5523 27.0523 31 26.5 31H20.5C19.9477 31 19.5 30.5523 19.5 30Z" fill="#7F90AF"/>
<path fill-rule="evenodd" clip-rule="evenodd" d="M19.5 37C19.5 36.4477 19.9477 36 20.5 36H26.5C27.0523 36 27.5 36.4477 27.5 37C27.5 37.5523 27.0523 38 26.5 38H20.5C19.9477 38 19.5 37.5523 19.5 37Z" fill="#7F90AF"/>
<path fill-rule="evenodd" clip-rule="evenodd" d="M19.5 45C19.5 44.4477 19.9477 44 20.5 44H26.5C27.0523 44 27.5 44.4477 27.5 45C27.5 45.5523 27.0523 46 26.5 46H20.5C19.9477 46 19.5 45.5523 19.5 45Z" fill="#7F90AF"/>
<path fill-rule="evenodd" clip-rule="evenodd" d="M19.5 53C19.5 52.4477 19.9477 52 20.5 52H26.5C27.0523 52 27.5 52.4477 27.5 53C27.5 53.5523 27.0523 54 26.5 54H20.5C19.9477 54 19.5 53.5523 19.5 53Z" fill="#7F90AF"/>
<path fill-rule="evenodd" clip-rule="evenodd" d="M32.5 30C32.5 29.4477 32.9477 29 33.5 29H38.5C39.0523 29 39.5 29.4477 39.5 30C39.5 30.5523 39.0523 31 38.5 31H33.5C32.9477 31 32.5 30.5523 32.5 30Z" fill="#7F90AF"/>
<path fill-rule="evenodd" clip-rule="evenodd" d="M32.5 37C32.5 36.4477 32.9477 36 33.5 36H38.5C39.0523 36 39.5 36.4477 39.5 37C39.5 37.5523 39.0523 38 38.5 38H33.5C32.9477 38 32.5 37.5523 32.5 37Z" fill="#7F90AF"/>
<path fill-rule="evenodd" clip-rule="evenodd" d="M56.5 54C56.5 53.4477 56.9477 53 57.5 53H62.5C63.0523 53 63.5 53.4477 63.5 54C63.5 54.5523 63.0523 55 62.5 55H57.5C56.9477 55 56.5 54.5523 56.5 54Z" fill="#7F90AF"/>
<path fill-rule="evenodd" clip-rule="evenodd" d="M56.5 62C56.5 61.4477 56.9477 61 57.5 61H62.5C63.0523 61 63.5 61.4477 63.5 62C63.5 62.5523 63.0523 63 62.5 63H57.5C56.9477 63 56.5 62.5523 56.5 62Z" fill="#7F90AF"/>
<path fill-rule="evenodd" clip-rule="evenodd" d="M56.5 69C56.5 68.4477 56.9477 68 57.5 68H62.5C63.0523 68 63.5 68.4477 63.5 69C63.5 69.5523 63.0523 70 62.5 70H57.5C56.9477 70 56.5 69.5523 56.5 69Z" fill="#7F90AF"/>
<path fill-rule="evenodd" clip-rule="evenodd" d="M32.5 45C32.5 44.4477 32.9477 44 33.5 44H38.5C39.0523 44 39.5 44.4477 39.5 45C39.5 45.5523 39.0523 46 38.5 46H33.5C32.9477 46 32.5 45.5523 32.5 45Z" fill="#7F90AF"/>
<path fill-rule="evenodd" clip-rule="evenodd" d="M32.5 53C32.5 52.4477 32.9477 52 33.5 52H38.5C39.0523 52 39.5 52.4477 39.5 53C39.5 53.5523 39.0523 54 38.5 54H33.5C32.9477 54 32.5 53.5523 32.5 53Z" fill="#7F90AF"/>
<path d="M34.5 62L26.5 62C25.9477 62 25.5 62.4477 25.5 63V74H35.5V63C35.5 62.4477 35.0523 62 34.5 62Z" fill="#DDE3ED"/>
<path fill-rule="evenodd" clip-rule="evenodd" d="M37.5 74C37.5 75.1046 36.6046 76 35.5 76H25.5C24.3954 76 23.5 75.1046 23.5 74V63C23.5 61.3432 24.8431 60 26.5 60L34.5 60C36.1569 60 37.5 61.3431 37.5 63V74ZM35.5 63C35.5 62.4477 35.0523 62 34.5 62L26.5 62C25.9477 62 25.5 62.4477 25.5 63V74H35.5V63Z" fill="#7F90AF"/>
</svg>
