<svg width="151" height="33" viewBox="0 0 151 33" fill="none" xmlns="http://www.w3.org/2000/svg">
<path fill-rule="evenodd" clip-rule="evenodd" d="M0 5.20518H31.0205V0.773438H0V5.20518Z" fill="#005A96"/>
<path fill-rule="evenodd" clip-rule="evenodd" d="M0 14.0646H31.0205V9.63281H0V14.0646Z" fill="#005A96"/>
<path fill-rule="evenodd" clip-rule="evenodd" d="M0 22.9317H31.0205V18.5H0V22.9317Z" fill="#005A96"/>
<path fill-rule="evenodd" clip-rule="evenodd" d="M0 31.7911H31.0205V27.3594H0V31.7911Z" fill="#005A96"/>
<path fill-rule="evenodd" clip-rule="evenodd" d="M46.5312 0.765625H58.859C63.7993 0.765625 67.7156 4.10142 67.7156 8.68728C67.7156 11.6686 66.2481 14.0283 63.7548 14.9188C67.8492 15.6294 69.9863 18.746 69.9863 22.6178C69.9863 27.8698 65.9809 31.7861 60.5509 31.7861H46.5312V0.765625ZM57.7459 13.1361C59.7049 13.1361 61.0851 11.7577 61.0851 9.84488C61.0851 8.01944 59.7049 6.63923 57.7904 6.63923H53.2508V13.1361H57.7459ZM59.1723 25.8663C61.4858 25.8663 63.176 24.2189 63.176 22.0835C63.176 19.991 61.5304 18.4344 59.1261 18.4344H53.2508V25.8663H59.1723Z" fill="#005A96"/>
<path fill-rule="evenodd" clip-rule="evenodd" d="M77.998 31.7939H84.8512V0.773438H77.998V31.7939Z" fill="#005A96"/>
<path fill-rule="evenodd" clip-rule="evenodd" d="M109.687 0.28125C114.717 0.28125 119.167 2.5074 122.239 6.06752L117.566 10.0283C115.607 7.84672 112.804 6.51275 109.687 6.51275C104.17 6.51275 99.8529 10.6962 99.8529 16.3044C99.8529 21.9125 104.17 26.0498 109.687 26.0498C112.804 26.0498 115.652 24.7158 117.609 22.4896L122.284 26.4505C119.212 30.0551 114.717 32.2812 109.687 32.2812C100.474 32.2812 92.998 25.56 92.998 16.3044C92.998 7.04531 100.474 0.28125 109.687 0.28125Z" fill="#005A96"/>
<path fill-rule="evenodd" clip-rule="evenodd" d="M129.492 0.765625H150.678V6.99541H136.347V12.8262H149.743V18.9241H136.347V25.5546H150.99V31.7861H129.492V0.765625Z" fill="#005A96"/>
</svg>
