<svg width="72" height="73" viewBox="0 0 72 73" fill="none" xmlns="http://www.w3.org/2000/svg">
<circle cx="35.9982" cy="36.5002" r="26.1818" fill="#EBEFF5"/>
<path d="M45.8164 48.7729L55.7267 58.6832" stroke="#7F90AF" stroke-width="1.5" stroke-linecap="round" stroke-linejoin="round"/>
<path d="M10.5664 32.3184C10.5664 30.5234 12.0215 29.0684 13.8164 29.0684H58.18C59.975 29.0684 61.43 30.5234 61.43 32.3184V40.682C61.43 42.4769 59.975 43.932 58.18 43.932H13.8164C12.0215 43.932 10.5664 42.4769 10.5664 40.682V32.3184Z" fill="white" stroke="#7F90AF" stroke-width="1.5" stroke-linecap="round" stroke-linejoin="round"/>
<path d="M20.4531 36.5C20.4531 38.5415 20.8552 40.563 21.6365 42.449C22.4177 44.3351 23.5628 46.0488 25.0063 47.4923C26.4498 48.9359 28.1635 50.0809 30.0496 50.8622C31.9357 51.6434 33.9571 52.0455 35.9986 52.0455C38.04 52.0455 40.0615 51.6434 41.9476 50.8622C43.8336 50.0809 45.5473 48.9359 46.9909 47.4923C48.4344 46.0488 49.5795 44.3351 50.3607 42.449C51.1419 40.563 51.544 38.5415 51.544 36.5C51.544 34.4586 51.1419 32.4371 50.3607 30.5511C49.5795 28.665 48.4344 26.9513 46.9909 25.5077C45.5473 24.0642 43.8336 22.9191 41.9476 22.1379C40.0615 21.3567 38.04 20.9546 35.9986 20.9546C33.9571 20.9546 31.9357 21.3567 30.0496 22.1379C28.1635 22.9191 26.4498 24.0642 25.0063 25.5077C23.5628 26.9513 22.4177 28.665 21.6365 30.5511C20.8552 32.4371 20.4531 34.4586 20.4531 36.5Z" fill="white" stroke="#7F90AF" stroke-width="1.5" stroke-linecap="round" stroke-linejoin="round"/>
<path d="M31.0898 33.2343C31.0885 32.3086 31.3489 31.4014 31.8411 30.6173C32.3333 29.8333 33.0371 29.2044 33.8714 28.8032C34.7057 28.4021 35.6364 28.245 36.5562 28.3501C37.4759 28.4553 38.3471 28.8184 39.0694 29.3975C39.7916 29.9766 40.3353 30.7481 40.6379 31.623C40.9404 32.4979 40.9893 33.4405 40.7791 34.3421C40.5688 35.2436 40.1079 36.0673 39.4495 36.7181C38.7912 37.3689 37.9622 37.8203 37.0583 38.0201C36.7618 38.0786 36.4944 38.2373 36.301 38.4696C36.1076 38.7018 35.9999 38.9935 35.996 39.2957V40.7519" stroke="#7F90AF" stroke-width="1.5" stroke-linecap="round" stroke-linejoin="round"/>
<path d="M36.0018 43.8638C36.1636 43.8638 36.3218 43.9118 36.4563 44.0017C36.5909 44.0916 36.6957 44.2193 36.7577 44.3688C36.8196 44.5183 36.8358 44.6829 36.8042 44.8416C36.7727 45.0003 36.6947 45.1461 36.5803 45.2605C36.4659 45.3749 36.3201 45.4528 36.1614 45.4844C36.0027 45.516 35.8382 45.4998 35.6887 45.4378C35.5392 45.3759 35.4114 45.2711 35.3215 45.1365C35.2316 45.002 35.1836 44.8438 35.1836 44.6819C35.1836 44.465 35.2698 44.2568 35.4232 44.1034C35.5767 43.95 35.7848 43.8638 36.0018 43.8638Z" fill="#7F90AF" stroke="#7F90AF" stroke-width="1.5" stroke-linecap="round" stroke-linejoin="round"/>
</svg>
