<svg width="56" height="56" viewBox="0 0 56 56" fill="none" xmlns="http://www.w3.org/2000/svg">
<path d="M48.364 28.0001C48.364 39.2466 39.2469 48.3637 28.0004 48.3637C16.7538 48.3637 7.63672 39.2466 7.63672 28.0001C7.63672 16.7536 16.7538 7.63647 28.0004 7.63647C39.2469 7.63647 48.364 16.7536 48.364 28.0001Z" fill="#EBEFF5"/>
<path d="M13.7458 17.8184H10.1822C8.77636 17.8184 7.63672 18.958 7.63672 20.3638V45.8184C7.63672 47.2242 8.77636 48.3638 10.1822 48.3638H27.6087H35.6367C37.0425 48.3638 38.1822 47.2242 38.1822 45.8184V37.0753V22.9093L31.5177 17.8184H13.7458Z" fill="#EBEFF5"/>
<path fill-rule="evenodd" clip-rule="evenodd" d="M10.1822 19.0911C9.47927 19.0911 8.90945 19.6609 8.90945 20.3638V45.8184C8.90945 46.5213 9.47927 47.0911 10.1822 47.0911H35.6367C36.3396 47.0911 36.9094 46.5213 36.9094 45.8184V23.5386L31.0872 19.0911H10.1822ZM31.5177 17.8184L38.1822 22.9093V45.8184C38.1822 47.2242 37.0425 48.3638 35.6367 48.3638H10.1822C8.77636 48.3638 7.63672 47.2242 7.63672 45.8184V20.3638C7.63672 18.958 8.77636 17.8184 10.1822 17.8184H31.5177Z" fill="#7F90AF"/>
<path d="M17.3077 12.7273H13.9986C12.5928 12.7273 11.4531 13.8669 11.4531 15.2728V45.8182C11.4531 47.224 12.5928 48.3637 13.9986 48.3637H30.593H38.1804C39.5862 48.3637 40.7259 47.224 40.7259 45.8182V35.1937V18.6667L34.3391 12.7273H17.3077Z" fill="#EBEFF5"/>
<path fill-rule="evenodd" clip-rule="evenodd" d="M13.9986 14C13.2957 14 12.7259 14.5698 12.7259 15.2728V45.8182C12.7259 46.5211 13.2957 47.0909 13.9986 47.0909H38.1804C38.8833 47.0909 39.4531 46.5211 39.4531 45.8182V19.2211L33.8387 14H13.9986ZM34.3391 12.7273L40.7259 18.6667V45.8182C40.7259 47.224 39.5862 48.3637 38.1804 48.3637H13.9986C12.5928 48.3637 11.4531 47.224 11.4531 45.8182V15.2728C11.4531 13.8669 12.5928 12.7273 13.9986 12.7273H34.3391Z" fill="#7F90AF"/>
<path d="M21.8916 7.63647H17.8189C16.4131 7.63647 15.2734 8.77611 15.2734 10.1819V45.8183C15.2734 47.2241 16.4131 48.3637 17.8189 48.3637H36.9098H45.8189C47.2247 48.3637 48.3643 47.2241 48.3643 45.8183V33.3124V14.4244L41.1445 7.63647H21.8916Z" fill="white"/>
<path fill-rule="evenodd" clip-rule="evenodd" d="M17.8189 8.9092C17.116 8.9092 16.5462 9.47902 16.5462 10.1819V45.8183C16.5462 46.5212 17.116 47.091 17.8189 47.091H45.8189C46.5218 47.091 47.0916 46.5212 47.0916 45.8183V14.9747L40.6402 8.9092H17.8189ZM41.1445 7.63647L48.3643 14.4244V45.8183C48.3643 47.2241 47.2247 48.3637 45.8189 48.3637H17.8189C16.4131 48.3637 15.2734 47.2241 15.2734 45.8183V10.1819C15.2734 8.77611 16.4131 7.63647 17.8189 7.63647H41.1445Z" fill="#7F90AF"/>
<path d="M40.7266 14.6365V8.90918L47.0902 14.6365H40.7266Z" fill="#EBEFF5"/>
<path fill-rule="evenodd" clip-rule="evenodd" d="M40.2081 7.74659C40.6672 7.54211 41.2037 7.62698 41.5773 7.96321L47.9409 13.6905C48.3326 14.043 48.4665 14.6005 48.2777 15.0925C48.0889 15.5845 47.6165 15.9092 47.0895 15.9092H40.7259C40.0229 15.9092 39.4531 15.3394 39.4531 14.6365V8.90923C39.4531 8.40661 39.7489 7.95107 40.2081 7.74659ZM40.7259 14.6365V8.90923L47.0895 14.6365H40.7259Z" fill="#7F90AF"/>
<path fill-rule="evenodd" clip-rule="evenodd" d="M19.7266 21.6364C19.7266 21.2849 20.0115 21 20.3629 21H41.9993C42.3507 21 42.6357 21.2849 42.6357 21.6364C42.6357 21.9878 42.3507 22.2727 41.9993 22.2727H20.3629C20.0115 22.2727 19.7266 21.9878 19.7266 21.6364Z" fill="#7F90AF"/>
<path fill-rule="evenodd" clip-rule="evenodd" d="M19.7266 15.2728C19.7266 14.9214 20.0115 14.6365 20.3629 14.6365L30.5447 14.6365C30.8962 14.6365 31.1811 14.9214 31.1811 15.2728C31.1811 15.6243 30.8962 15.9092 30.5447 15.9092L20.3629 15.9092C20.0115 15.9092 19.7266 15.6243 19.7266 15.2728Z" fill="#7F90AF"/>
<path fill-rule="evenodd" clip-rule="evenodd" d="M19.7266 27.9999C19.7266 27.6484 20.0115 27.3635 20.3629 27.3635H41.9993C42.3507 27.3635 42.6357 27.6484 42.6357 27.9999C42.6357 28.3513 42.3507 28.6363 41.9993 28.6363H20.3629C20.0115 28.6363 19.7266 28.3513 19.7266 27.9999Z" fill="#7F90AF"/>
<path fill-rule="evenodd" clip-rule="evenodd" d="M19.7266 34.3637C19.7266 34.0122 20.0115 33.7273 20.3629 33.7273H41.9993C42.3507 33.7273 42.6357 34.0122 42.6357 34.3637C42.6357 34.7151 42.3507 35 41.9993 35H20.3629C20.0115 35 19.7266 34.7151 19.7266 34.3637Z" fill="#7F90AF"/>
<path fill-rule="evenodd" clip-rule="evenodd" d="M19.7266 40.7272C19.7266 40.3757 20.0115 40.0908 20.3629 40.0908H41.9993C42.3507 40.0908 42.6357 40.3757 42.6357 40.7272C42.6357 41.0786 42.3507 41.3635 41.9993 41.3635H20.3629C20.0115 41.3635 19.7266 41.0786 19.7266 40.7272Z" fill="#7F90AF"/>
</svg>
