<svg width="89" height="88" viewBox="0 0 89 88" fill="none" xmlns="http://www.w3.org/2000/svg">
<path d="M76.5 44C76.5 61.6731 62.1731 76 44.5 76C26.8269 76 12.5 61.6731 12.5 44C12.5 26.3269 26.8269 12 44.5 12C62.1731 12 76.5 26.3269 76.5 44Z" fill="#EBEFF5"/>
<path d="M38.1016 66.0003C38.1016 60.8065 40.0716 55.8254 43.5782 52.1528C47.0848 48.4802 51.8408 46.417 56.7999 46.417C61.7591 46.417 66.5151 48.4802 70.0217 52.1528C73.5283 55.8254 75.4983 60.8065 75.4983 66.0003" fill="#C8D1E0"/>
<path fill-rule="evenodd" clip-rule="evenodd" d="M56.7999 47.417C52.1214 47.417 47.6245 49.3631 44.3015 52.8434C41.2018 56.0897 39.3619 60.4227 39.1272 65.0003H74.4727C74.238 60.4227 72.3981 56.0897 69.2984 52.8434C65.9754 49.3631 61.4785 47.417 56.7999 47.417ZM42.8549 51.4622C46.5452 47.5974 51.5603 45.417 56.7999 45.417C62.0396 45.417 67.0547 47.5974 70.745 51.4622C74.4337 55.3255 76.4983 60.5558 76.4983 66.0003C76.4983 66.2655 76.393 66.5199 76.2054 66.7074C76.0179 66.895 75.7635 67.0003 75.4983 67.0003H38.1016C37.8363 67.0003 37.582 66.895 37.3945 66.7074C37.2069 66.5199 37.1016 66.2655 37.1016 66.0003C37.1016 60.5558 39.1662 55.3255 42.8549 51.4622Z" fill="#7F90AF"/>
<path fill-rule="evenodd" clip-rule="evenodd" d="M20.4034 30.7296C20.9557 30.7368 21.3975 31.1904 21.3902 31.7426L21.3634 33.7909C21.4529 37.0079 20.7431 40.194 19.31 42.9603C19.056 43.4507 18.4525 43.6423 17.9621 43.3883C17.4717 43.1342 17.2801 42.5307 17.5342 42.0403C18.8077 39.5819 19.4475 36.7261 19.3636 33.8275C19.3632 33.8135 19.3631 33.7995 19.3633 33.7855L19.3904 31.7164C19.3977 31.1642 19.8512 30.7223 20.4034 30.7296Z" fill="#7F90AF"/>
<path fill-rule="evenodd" clip-rule="evenodd" d="M43.0349 28.7705C43.5872 28.7705 44.0349 29.2182 44.0349 29.7705V32.7502C44.0349 32.7631 44.0347 32.776 44.0342 32.7889C43.9101 35.9913 44.8631 39.167 46.795 41.9261C47.1118 42.3785 47.0018 43.0021 46.5494 43.3188C46.097 43.6356 45.4734 43.5256 45.1567 43.0732C42.9894 39.9779 41.8978 36.3826 42.0349 32.7311V29.7705C42.0349 29.2182 42.4827 28.7705 43.0349 28.7705Z" fill="#7F90AF"/>
<path d="M20.3906 30.2604C20.3906 33.2469 21.583 36.111 23.7054 38.2227C25.8279 40.3345 28.7065 41.5208 31.7081 41.5208C34.7096 41.5208 37.5883 40.3345 39.7107 38.2227C41.8331 36.111 43.0255 33.2469 43.0255 30.2604C43.0255 27.274 41.8331 24.4098 39.7107 22.2981C37.5883 20.1864 34.7096 19 31.7081 19C28.7065 19 25.8279 20.1864 23.7054 22.2981C21.583 24.4098 20.3906 27.274 20.3906 30.2604Z" fill="white"/>
<path fill-rule="evenodd" clip-rule="evenodd" d="M23.0001 21.5892C25.3105 19.2905 28.4429 18 31.7081 18C34.9732 18 38.1057 19.2905 40.416 21.5892C42.7266 23.8881 44.0255 27.0071 44.0255 30.2604C44.0255 33.5137 42.7266 36.6327 40.416 38.9316C38.1057 41.2303 34.9732 42.5208 31.7081 42.5208C28.4429 42.5208 25.3105 41.2303 23.0001 38.9316C20.6896 36.6327 19.3906 33.5137 19.3906 30.2604C19.3906 27.0071 20.6896 23.8881 23.0001 21.5892ZM31.7081 20C28.9701 20 26.3453 21.0822 24.4107 23.007C22.4764 24.9316 21.3906 27.5408 21.3906 30.2604C21.3906 32.98 22.4764 35.5893 24.4107 37.5138C26.3453 39.4386 28.9701 40.5208 31.7081 40.5208C34.446 40.5208 37.0709 39.4386 39.0054 37.5138C40.9397 35.5893 42.0255 32.98 42.0255 30.2604C42.0255 27.5408 40.9397 24.9316 39.0054 23.007C37.0709 21.0822 34.446 20 31.7081 20Z" fill="#7F90AF"/>
<path d="M45.9766 30.2604C45.9766 33.2469 47.1689 36.111 49.2914 38.2227C51.4138 40.3345 54.2924 41.5208 57.294 41.5208C60.2956 41.5208 63.1742 40.3345 65.2966 38.2227C67.4191 36.111 68.6114 33.2469 68.6114 30.2604C68.6114 27.274 67.4191 24.4098 65.2966 22.2981C63.1742 20.1864 60.2956 19 57.294 19C54.2924 19 51.4138 20.1864 49.2914 22.2981C47.1689 24.4098 45.9766 27.274 45.9766 30.2604Z" fill="white"/>
<path fill-rule="evenodd" clip-rule="evenodd" d="M48.586 21.5892C50.8964 19.2905 54.0288 18 57.294 18C60.5592 18 63.6916 19.2905 66.002 21.5892C68.3125 23.8881 69.6114 27.0071 69.6114 30.2604C69.6114 33.5137 68.3125 36.6327 66.002 38.9316C63.6916 41.2303 60.5592 42.5208 57.294 42.5208C54.0288 42.5208 50.8964 41.2303 48.586 38.9316C46.2755 36.6327 44.9766 33.5137 44.9766 30.2604C44.9766 27.0071 46.2755 23.8881 48.586 21.5892ZM57.294 20C54.556 20 51.9312 21.0822 49.9967 23.007C48.0623 24.9316 46.9766 27.5408 46.9766 30.2604C46.9766 32.98 48.0623 35.5893 49.9967 37.5138C51.9312 39.4386 54.556 40.5208 57.294 40.5208C60.032 40.5208 62.6568 39.4386 64.5913 37.5138C66.5257 35.5893 67.6114 32.98 67.6114 30.2604C67.6114 27.5408 66.5257 24.9316 64.5913 23.007C62.6568 21.0822 60.032 20 57.294 20Z" fill="#7F90AF"/>
<path d="M13.5 66.0003C13.5 60.8065 15.47 55.8254 18.9766 52.1528C22.4833 48.4802 27.2393 46.417 32.1984 46.417C37.1575 46.417 41.9135 48.4802 45.4201 52.1528C48.9268 55.8254 50.8968 60.8065 50.8968 66.0003" fill="#EBEFF5"/>
<path fill-rule="evenodd" clip-rule="evenodd" d="M32.1984 47.417C27.5198 47.417 23.0229 49.3631 19.6999 52.8434C16.6003 56.0897 14.7604 60.4227 14.5256 65.0003H49.8712C49.6364 60.4227 47.7965 56.0897 44.6969 52.8434C41.3738 49.3631 36.877 47.417 32.1984 47.417ZM18.2534 51.4622C21.9436 47.5974 26.9587 45.417 32.1984 45.417C37.438 45.417 42.4532 47.5974 46.1434 51.4622C49.8321 55.3255 51.8968 60.5558 51.8968 66.0003C51.8968 66.2655 51.7914 66.5199 51.6039 66.7074C51.4163 66.895 51.162 67.0003 50.8968 67.0003H13.5C13.2348 67.0003 12.9804 66.895 12.7929 66.7074C12.6054 66.5199 12.5 66.2655 12.5 66.0003C12.5 60.5558 14.5647 55.3255 18.2534 51.4622Z" fill="#7F90AF"/>
<path fill-rule="evenodd" clip-rule="evenodd" d="M31.7087 24.8545C32.0191 24.8547 32.3119 24.999 32.501 25.2452C33.8214 26.9636 35.4465 28.3362 37.2623 29.2788C39.0774 30.2211 41.0447 30.7139 43.0334 30.7295C43.5857 30.7339 44.0298 31.1851 44.0255 31.7374C44.0211 32.2896 43.5699 32.7338 43.0176 32.7295C40.7062 32.7112 38.4293 32.1381 36.3408 31.0539C34.6086 30.1547 33.0415 28.9226 31.7071 27.4218C30.372 28.9199 28.8046 30.1493 27.0726 31.046C24.9841 32.1273 22.708 32.6979 20.3976 32.714C19.8453 32.7179 19.3945 32.2733 19.3906 31.721C19.3868 31.1688 19.8314 30.7179 20.3836 30.7141C22.3714 30.7002 24.338 30.2097 26.1531 29.2699C27.9688 28.3299 29.5943 26.96 30.9158 25.2443C31.1053 24.9983 31.3982 24.8543 31.7087 24.8545Z" fill="#7F90AF"/>
<path fill-rule="evenodd" clip-rule="evenodd" d="M45.8932 26.7302C46.1165 26.2251 46.707 25.997 47.2122 26.2205C50.8787 27.8429 55.0664 28.5753 59.2902 28.3216L59.292 28.3215C62.4421 28.1378 65.137 27.8043 67.8356 26.6674C68.3445 26.4531 68.9311 26.6919 69.1457 27.2008C69.3604 27.7098 69.122 28.2962 68.6131 28.5105C65.5928 29.7829 62.621 30.1308 59.4104 30.318C59.4101 30.318 59.4098 30.318 59.4095 30.318L59.3507 29.3197L59.4113 30.3179C59.411 30.3179 59.4107 30.3179 59.4104 30.318C54.8845 30.5896 50.3766 29.8072 46.4037 28.0493C45.8985 27.8258 45.67 27.2352 45.8932 26.7302Z" fill="#7F90AF"/>
</svg>
